<svg width="41" height="41" viewBox="0 0 41 41" fill="none" xmlns="http://www.w3.org/2000/svg">
<g clip-path="url(#clip0)">
<path d="M21.064 40.64C31.7949 40.64 40.494 31.9409 40.494 21.21C40.494 10.4791 31.7949 1.78002 21.064 1.78002C10.3331 1.78002 1.634 10.4791 1.634 21.21C1.634 31.9409 10.3331 40.64 21.064 40.64Z" fill="#D7747A"/>
<path d="M19.617 39.203C30.3479 39.203 39.047 30.5039 39.047 19.773C39.047 9.04212 30.3479 0.343018 19.617 0.343018C8.88612 0.343018 0.187012 9.04212 0.187012 19.773C0.187012 30.5039 8.88612 39.203 19.617 39.203Z" fill="url(#paint0_linear)"/>
<path d="M23.669 27.109L23.396 28.18C22.5773 28.4873 21.924 28.7227 21.436 28.886C20.886 29.0575 20.312 29.1395 19.736 29.129C18.9061 29.1801 18.0854 28.9317 17.423 28.429C17.1594 28.2183 16.9478 27.9498 16.8046 27.6443C16.6614 27.3388 16.5903 27.0044 16.597 26.667C16.5974 26.3826 16.6181 26.0985 16.659 25.817C16.709 25.4878 16.7758 25.1614 16.859 24.839L17.883 21.369C17.9743 21.0357 18.0513 20.7217 18.114 20.427C18.1718 20.1594 18.2026 19.8867 18.206 19.613C18.2242 19.4468 18.2082 19.2787 18.159 19.119C18.1098 18.9592 18.0285 18.8112 17.92 18.684C17.5958 18.474 17.2091 18.3822 16.825 18.424C16.5495 18.4255 16.2756 18.4652 16.011 18.542C15.7697 18.6087 15.531 18.684 15.295 18.768L15.569 17.697C16.239 17.437 16.881 17.213 17.494 17.028C18.0565 16.8488 18.6427 16.7544 19.233 16.748C20.0501 16.6943 20.8591 16.9368 21.512 17.431C21.7713 17.647 21.978 17.9192 22.1166 18.2269C22.2552 18.5345 22.322 18.8697 22.312 19.207C22.312 19.3577 22.293 19.6243 22.255 20.007C22.2247 20.3607 22.1577 20.7102 22.055 21.05L21.035 24.509C20.9438 24.8212 20.869 25.138 20.811 25.458C20.7547 25.724 20.7212 25.9943 20.711 26.266C20.6895 26.4367 20.7074 26.61 20.7634 26.7726C20.8194 26.9352 20.912 27.0828 21.034 27.204C21.3701 27.4027 21.7603 27.4902 22.149 27.454C22.4342 27.449 22.7176 27.4069 22.992 27.329C23.2237 27.2716 23.4513 27.1985 23.673 27.11L23.669 27.109ZM23.93 12.604C23.9315 12.897 23.8683 13.1867 23.7449 13.4524C23.6215 13.7181 23.4409 13.9532 23.216 14.141C22.7455 14.564 22.1315 14.7918 21.499 14.778C20.8643 14.7908 20.2481 14.5633 19.774 14.141C19.5488 13.9525 19.3676 13.7168 19.2433 13.4506C19.119 13.1845 19.0546 12.8943 19.0546 12.6005C19.0546 12.3068 19.119 12.0166 19.2433 11.7504C19.3676 11.4842 19.5488 11.2486 19.774 11.06C20.2466 10.6348 20.8634 10.4056 21.499 10.419C22.1323 10.4053 22.7467 10.6347 23.216 11.06C23.4419 11.2487 23.6234 11.4849 23.7475 11.7518C23.8717 12.0187 23.9353 12.3097 23.934 12.604H23.93Z" fill="white"/>
</g>
<defs>
<linearGradient id="paint0_linear" x1="19.617" y1="48.918" x2="19.617" y2="-9.37198" gradientUnits="userSpaceOnUse">
<stop stop-color="#EE858C"/>
<stop offset="0.549" stop-color="#F4A1A4"/>
<stop offset="0.98" stop-color="#FABCBC"/>
<stop offset="1" stop-color="#FABCBC"/>
</linearGradient>
<clipPath id="clip0">
<rect width="40.35" height="40.35" fill="white" transform="translate(0.190002 0.339996)"/>
</clipPath>
</defs>
</svg>
