<svg width="35" height="35" viewBox="0 0 35 35" fill="none" xmlns="http://www.w3.org/2000/svg">
<g clip-path="url(#clip0)">
<path d="M17.5005 35.0056C27.1666 35.0056 35.0025 27.1697 35.0025 17.5037C35.0025 7.83757 27.1666 0.00160217 17.5005 0.00160217C7.83438 0.00160217 -0.00158691 7.83757 -0.00158691 17.5037C-0.00158691 27.1697 7.83438 35.0056 17.5005 35.0056Z" fill="white"/>
<path d="M21.8615 20.2964C21.7262 20.1451 21.5611 20.0234 21.3767 19.9387C21.1922 19.8541 20.9923 19.8084 20.7894 19.8043C20.5853 19.8091 20.3841 19.8549 20.1979 19.9387C20.0118 20.0225 19.8442 20.1427 19.7053 20.2924L18.7051 21.2925C18.6232 21.2484 18.5401 21.2075 18.4612 21.1655C18.3471 21.1085 18.239 21.0544 18.1471 20.9974C17.1531 20.3528 16.271 19.55 15.5357 18.6211C15.1953 18.2088 14.9077 17.7556 14.6797 17.272C14.9397 17.035 15.1797 16.7879 15.4158 16.5499C15.5048 16.4609 15.5937 16.3699 15.6818 16.2809C15.8386 16.1447 15.9644 15.9763 16.0506 15.7874C16.1367 15.5984 16.1814 15.3931 16.1814 15.1853C16.1814 14.9776 16.1367 14.7721 16.0506 14.5832C15.9644 14.3942 15.8386 14.2258 15.6818 14.0896L14.8157 13.2255C14.7157 13.1255 14.6156 13.0255 14.5206 12.9255C14.3306 12.7254 14.1306 12.5255 13.9205 12.3364C13.7838 12.1929 13.6197 12.0777 13.4382 11.998C13.2565 11.9181 13.0608 11.8751 12.8624 11.8714C12.4575 11.8805 12.072 12.0474 11.7883 12.3364L11.7824 12.3424L10.7002 13.4285C10.2998 13.8208 10.0554 14.345 10.0121 14.9038C9.9759 15.706 10.1144 16.5066 10.4182 17.25C10.9858 18.7274 11.8065 20.0947 12.8434 21.2904C14.2038 22.925 15.8979 24.2498 17.812 25.176C18.6819 25.6239 19.6286 25.9032 20.6024 25.999C20.6694 25.999 20.7383 26.005 20.8024 26.005C21.1457 26.0132 21.4869 25.9474 21.8026 25.8119C22.1182 25.6763 22.401 25.4745 22.6316 25.2199C22.6316 25.214 22.6416 25.2109 22.6446 25.204C22.819 25.0028 23.0042 24.8115 23.1996 24.6308C23.3357 24.5009 23.4757 24.3648 23.6117 24.2228C23.91 23.9335 24.0822 23.5382 24.0908 23.1227C24.0867 22.9182 24.0414 22.7165 23.9575 22.5298C23.8737 22.3432 23.753 22.1754 23.6027 22.0365L21.8615 20.2964ZM22.9966 23.6308C22.8726 23.7638 22.7467 23.8838 22.6095 24.0168C22.3946 24.2169 22.1902 24.4282 21.9975 24.6498C21.8474 24.8152 21.6629 24.9456 21.457 25.0321C21.2509 25.1185 21.0285 25.1586 20.8054 25.1499C20.7573 25.1499 20.7053 25.1499 20.6594 25.1499C19.7963 25.0594 18.9582 24.8067 18.1891 24.4048C16.3863 23.5315 14.7906 22.2835 13.5085 20.7444C12.533 19.6195 11.7604 18.3335 11.2253 16.9439C10.9599 16.3213 10.8378 15.6469 10.8682 14.9708C10.8935 14.6141 11.0495 14.2794 11.3063 14.0307L12.3884 12.9505C12.5145 12.8168 12.6869 12.7363 12.8705 12.7254C13.048 12.7361 13.2142 12.8157 13.3335 12.9476L13.3435 12.9565C13.5365 13.1365 13.7206 13.3236 13.9146 13.5235C14.0146 13.6235 14.1147 13.7236 14.2147 13.8306L15.0807 14.6947C15.1594 14.7501 15.2235 14.8236 15.2678 14.909C15.3121 14.9943 15.3352 15.0892 15.3352 15.1853C15.3352 15.2815 15.3121 15.3762 15.2678 15.4616C15.2235 15.547 15.1594 15.6204 15.0807 15.6758C14.9888 15.7678 14.8997 15.8599 14.8077 15.9478C14.5417 16.2199 14.2876 16.4739 14.0076 16.72C14.0015 16.7259 13.9946 16.729 13.9917 16.7359C13.8938 16.8245 13.8256 16.941 13.7961 17.0696C13.7666 17.1981 13.7772 17.3327 13.8265 17.4551L13.8366 17.483C14.0982 18.0856 14.444 18.648 14.8637 19.1532C15.656 20.1561 16.6083 21.0214 17.6821 21.7145C17.8083 21.7918 17.9385 21.8625 18.0721 21.9266C18.1861 21.9836 18.2941 22.0375 18.386 22.0945C18.3991 22.1006 18.4111 22.1106 18.424 22.1166C18.521 22.1675 18.6287 22.1946 18.7381 22.1956C18.829 22.1934 18.9185 22.173 19.0013 22.1355C19.0841 22.098 19.1586 22.0443 19.2202 21.9776L20.3044 20.8945C20.4276 20.7567 20.5992 20.6718 20.7834 20.6574C20.8714 20.6627 20.9571 20.6859 21.0358 20.7257C21.1144 20.7654 21.184 20.8208 21.2405 20.8884L21.2464 20.8945L22.9896 22.6396C23.066 22.6975 23.128 22.7721 23.171 22.8577C23.2139 22.9433 23.2366 23.0377 23.2373 23.1335C23.2379 23.2293 23.2166 23.3239 23.1749 23.4102C23.1331 23.4963 23.0721 23.5718 22.9966 23.6308Z" fill="black"/>
<path d="M18.1071 14.5717C18.9356 14.7148 19.6995 15.1103 20.2945 15.7044C20.8895 16.2984 21.2862 17.0618 21.4305 17.8901C21.4471 17.9898 21.4987 18.0803 21.5761 18.1454C21.6534 18.2104 21.7515 18.2458 21.8525 18.2452C21.8769 18.2447 21.9013 18.2428 21.9255 18.2392C21.9811 18.2299 22.0343 18.2099 22.0822 18.18C22.13 18.1502 22.1715 18.1112 22.2042 18.0653C22.2368 18.0194 22.2602 17.9675 22.2728 17.9125C22.2854 17.8576 22.287 17.8007 22.2775 17.7451C22.1033 16.743 21.6235 15.8192 20.9037 15.1006C20.1839 14.3818 19.2595 13.9033 18.2571 13.7306C18.1453 13.7118 18.0307 13.7377 17.938 13.8028C17.8453 13.868 17.7821 13.9671 17.7621 14.0787C17.7519 14.1338 17.7529 14.1903 17.7649 14.245C17.7768 14.2997 17.7996 14.3514 17.8316 14.3973C17.8636 14.4431 17.9046 14.4821 17.9518 14.5122C17.9991 14.5421 18.0518 14.5624 18.1071 14.5717Z" fill="black"/>
<path d="M24.9898 17.6211C24.7033 15.9714 23.9137 14.4505 22.7291 13.2671C21.5445 12.0837 20.0231 11.2954 18.3731 11.0104C18.317 10.9991 18.2592 10.9993 18.2031 11.0109C18.1471 11.0224 18.094 11.0452 18.0469 11.0778C17.9997 11.1103 17.9597 11.152 17.929 11.2003C17.8983 11.2487 17.8778 11.3026 17.8684 11.3591C17.8589 11.4156 17.8609 11.4734 17.8744 11.529C17.8878 11.5846 17.9122 11.6369 17.9462 11.683C17.9802 11.729 18.0232 11.7678 18.0724 11.7968C18.1217 11.8259 18.1764 11.8448 18.2332 11.8524C19.7085 12.106 21.0692 12.8099 22.1286 13.8678C23.188 14.9255 23.894 16.2852 24.1498 17.7601C24.1665 17.8598 24.2181 17.9503 24.2954 18.0154C24.3728 18.0805 24.4708 18.1158 24.5718 18.1151C24.5963 18.1148 24.6207 18.1127 24.6449 18.1091C24.6997 18.1001 24.7522 18.0802 24.7993 18.0507C24.8464 18.0212 24.8873 17.9826 24.9194 17.9372C24.9515 17.8917 24.9742 17.8405 24.9863 17.7862C24.9985 17.7319 24.9996 17.6758 24.9898 17.6211Z" fill="black"/>
<path d="M20.6005 25.999C19.6267 25.9027 18.6801 25.6231 17.8102 25.175C15.8959 24.2494 14.2017 22.9249 12.8415 21.2906C11.8039 20.0951 10.9828 18.7278 10.4153 17.25C10.1106 16.5059 9.97208 15.704 10.0092 14.9008C10.0528 14.3429 10.2973 13.8199 10.6974 13.4287L11.7764 12.3424L11.7814 12.3364C12.066 12.0462 12.4532 11.8793 12.8595 11.8714C13.0587 11.8748 13.2552 11.9176 13.4378 11.9975C13.6202 12.0773 13.785 12.1925 13.9226 12.3364C14.1277 12.5264 14.3227 12.7285 14.5177 12.9255C14.6177 13.0255 14.7178 13.1255 14.8178 13.2255L15.6829 14.0896C15.8398 14.2258 15.9655 14.3942 16.0516 14.5832C16.1379 14.7723 16.1825 14.9776 16.1825 15.1853C16.1825 15.3931 16.1379 15.5984 16.0516 15.7874C15.9655 15.9764 15.8398 16.1447 15.6829 16.2809C15.5948 16.3699 15.5069 16.4619 15.4169 16.5499C15.1818 16.7879 14.9408 17.0341 14.6808 17.272C14.9093 17.7556 15.1972 18.2089 15.5378 18.6211C16.2725 19.549 17.1535 20.351 18.1461 20.9955C18.2392 21.0525 18.3461 21.1064 18.4602 21.1624C18.5391 21.2035 18.6232 21.2455 18.7042 21.2895L19.7043 20.2893C19.8435 20.1396 20.0112 20.0193 20.1976 19.9355C20.3839 19.8517 20.5851 19.8061 20.7895 19.8013C20.9922 19.8054 21.1921 19.8511 21.3765 19.9356C21.561 20.02 21.726 20.1414 21.8616 20.2924L23.6028 22.0375C23.7529 22.1763 23.8735 22.344 23.9574 22.5304C24.0413 22.7169 24.0866 22.9183 24.0908 23.1227C24.082 23.5381 23.9099 23.9334 23.6118 24.2228C23.4748 24.3658 23.3358 24.5019 23.1998 24.6319C23.0043 24.8125 22.819 25.0038 22.6448 25.205C22.6448 25.2109 22.6356 25.214 22.6317 25.2199C22.4011 25.4749 22.1182 25.6771 21.8024 25.8128C21.4865 25.9485 21.1451 26.0144 20.8015 26.0061C20.7385 26.005 20.6694 26.005 20.6005 25.999ZM12.3855 12.9515L11.3034 14.0307C11.0469 14.2795 10.8916 14.6144 10.8674 14.9708C10.8348 15.6497 10.9558 16.3273 11.2215 16.953C11.7562 18.3426 12.5288 19.6288 13.5047 20.7535C14.7863 22.2927 16.3816 23.5406 18.1841 24.4138C18.9546 24.8144 19.7937 25.0658 20.6575 25.1549C20.7055 25.1549 20.7575 25.1549 20.8035 25.1549C21.0269 25.1639 21.2495 25.1239 21.4556 25.0375C21.6618 24.951 21.8464 24.8205 21.9966 24.6548C22.1891 24.4334 22.3931 24.222 22.6078 24.0219C22.7437 23.8889 22.8698 23.7688 22.9937 23.6358C23.0697 23.5774 23.1311 23.5024 23.1735 23.4164C23.2158 23.3305 23.2378 23.236 23.2378 23.1402C23.2378 23.0444 23.2158 22.9499 23.1735 22.864C23.1311 22.7781 23.0697 22.703 22.9937 22.6447L21.2455 20.9005L21.2395 20.8945C21.183 20.8269 21.1134 20.7716 21.0348 20.7319C20.9563 20.6921 20.8704 20.6689 20.7824 20.6635C20.5982 20.6784 20.4266 20.7636 20.3034 20.9014L19.2193 21.9845C19.1577 22.0515 19.0834 22.1055 19.0006 22.1431C18.9178 22.1807 18.8283 22.2013 18.7374 22.2036C18.6278 22.2025 18.5201 22.1754 18.4232 22.1246C18.4102 22.1186 18.3983 22.1086 18.3852 22.1026C18.2932 22.0456 18.1853 21.9916 18.0713 21.9356C17.9376 21.8717 17.8074 21.8009 17.6812 21.7235C16.6087 21.0315 15.6577 20.167 14.8667 19.1653C14.4489 18.6598 14.1045 18.0978 13.8437 17.496L13.8336 17.467C13.7847 17.3448 13.7743 17.2105 13.8037 17.0822C13.8332 16.9538 13.9013 16.8376 13.9987 16.749C14.0034 16.743 14.0088 16.7376 14.0147 16.733C14.2897 16.486 14.5437 16.2329 14.8147 15.9608C14.9067 15.8719 14.9959 15.7799 15.0878 15.6879C15.1665 15.6325 15.2306 15.559 15.2748 15.4736C15.3191 15.3882 15.3423 15.2934 15.3423 15.1973C15.3423 15.1011 15.3191 15.0064 15.2748 14.921C15.2306 14.8356 15.1665 14.7621 15.0878 14.7067L14.2206 13.8417C14.1206 13.7417 14.0207 13.6367 13.9207 13.5346C13.7277 13.3345 13.5426 13.1485 13.3496 12.9685L13.3396 12.9585C13.2202 12.827 13.0539 12.7475 12.8765 12.7375C12.6922 12.743 12.5171 12.8194 12.3874 12.9505L12.3855 12.9515ZM21.4276 17.8901C21.2833 17.0619 20.8864 16.2988 20.2914 15.7048C19.6965 15.111 18.9325 14.7155 18.1041 14.5728C18.0488 14.5634 17.9959 14.5432 17.9485 14.5132C17.9011 14.4833 17.86 14.4441 17.8279 14.3982C17.7957 14.3522 17.7731 14.3002 17.7613 14.2454C17.7495 14.1905 17.7489 14.1338 17.7591 14.0787C17.7792 13.9671 17.8423 13.868 17.935 13.8028C18.0277 13.7377 18.1425 13.7118 18.2542 13.7306C19.2563 13.9038 20.1804 14.3825 20.8999 15.1011C21.6194 15.8197 22.0992 16.7433 22.2736 17.7451C22.2831 17.8007 22.2814 17.8576 22.2688 17.9125C22.2562 17.9675 22.233 18.0194 22.2003 18.0652C22.1675 18.1112 22.126 18.1502 22.0783 18.18C22.0304 18.2099 21.9772 18.2299 21.9216 18.2392C21.8974 18.2425 21.8731 18.2444 21.8486 18.2452C21.7483 18.2444 21.6515 18.2085 21.575 18.1436C21.4986 18.0787 21.4475 17.9889 21.4307 17.8901H21.4276ZM24.1489 17.7601C23.893 16.2849 23.1868 14.925 22.1273 13.867C21.0678 12.8092 19.7067 12.105 18.2311 11.8515C18.1744 11.8439 18.1198 11.8249 18.0705 11.7959C18.0212 11.7667 17.9783 11.7281 17.9443 11.682C17.9103 11.636 17.8859 11.5836 17.8725 11.5279C17.859 11.4723 17.857 11.4146 17.8663 11.3581C17.8757 11.3016 17.8965 11.2476 17.9272 11.1992C17.9578 11.151 17.9978 11.1092 18.0449 11.0767C18.0921 11.0443 18.1452 11.0215 18.2012 11.0099C18.2573 10.9983 18.3151 10.9982 18.3712 11.0093C20.0219 11.2936 21.5443 12.0816 22.7296 13.2651C23.9149 14.4486 24.7051 15.9698 24.9919 17.6201C25.0015 17.6751 25.0001 17.7315 24.9877 17.7859C24.9752 17.8404 24.9521 17.8917 24.9196 17.9372C24.8871 17.9826 24.8459 18.0212 24.7984 18.0504C24.7509 18.0798 24.698 18.0993 24.6429 18.1081C24.6187 18.1115 24.5943 18.1135 24.5699 18.1141C24.4695 18.1144 24.3722 18.0788 24.2955 18.014C24.2187 17.9491 24.1675 17.8591 24.1509 17.7601H24.1489Z" fill="#FF6178"/>
</g>
<defs>
<clipPath id="clip0">
<rect width="35" height="35" fill="white"/>
</clipPath>
</defs>
</svg>
