<svg xmlns="http://www.w3.org/2000/svg" xmlns:xlink="http://www.w3.org/1999/xlink" width="20" height="20" viewBox="0 0 20 20">
  <defs>
    <linearGradient id="linear-gradient" x1="0.5" y1="1" x2="0.5" gradientUnits="objectBoundingBox">
      <stop offset="0" stop-color="#ee858c"/>
      <stop offset="0.549" stop-color="#f4a1a4"/>
      <stop offset="0.98" stop-color="#fabcbc"/>
      <stop offset="1" stop-color="#fabcbc"/>
    </linearGradient>
  </defs>
  <g id="Иконка" transform="translate(-1522 -83)">
    <g id="Иконка-2" data-name="Иконка" transform="translate(1522 83)">
      <g id="Group_3" data-name="Group 3">
        <g id="Group_2" data-name="Group 2">
          <g id="Group_1" data-name="Group 1">
            <circle id="Ellipse_1" data-name="Ellipse 1" cx="0.781" cy="0.781" r="0.781" transform="translate(14.297 7.422)"/>
            <path id="Path_2" data-name="Path 2" d="M16.875,1.563H15.859V.781a.781.781,0,0,0-1.562,0v.781H10.742V.781a.781.781,0,0,0-1.562,0v.781H5.664V.781A.781.781,0,0,0,4.1.781v.781H3.125A3.129,3.129,0,0,0,0,4.688V16.875A3.129,3.129,0,0,0,3.125,20H9.1a.781.781,0,0,0,0-1.562H3.125a1.564,1.564,0,0,1-1.562-1.562V4.688A1.564,1.564,0,0,1,3.125,3.125H4.1v.781a.781.781,0,0,0,1.563,0V3.125H9.18v.781a.781.781,0,0,0,1.563,0V3.125H14.3v.781a.781.781,0,0,0,1.563,0V3.125h1.016a1.564,1.564,0,0,1,1.563,1.563V9.141a.781.781,0,0,0,1.563,0V4.688A3.129,3.129,0,0,0,16.875,1.563Z"/>
            <path id="Path_3" data-name="Path 3" d="M15.273,10.547A4.727,4.727,0,1,0,20,15.273,4.732,4.732,0,0,0,15.273,10.547Zm0,7.891a3.164,3.164,0,1,1,3.164-3.164A3.168,3.168,0,0,1,15.273,18.438Z"/>
            <path id="Path_4" data-name="Path 4" d="M16.406,14.492h-.352v-.82a.781.781,0,0,0-1.562,0v1.6a.781.781,0,0,0,.781.781h1.133a.781.781,0,0,0,0-1.562Z"/>
            <circle id="Ellipse_2" data-name="Ellipse 2" cx="0.781" cy="0.781" r="0.781" transform="translate(10.898 7.422)"/>
            <circle id="Ellipse_3" data-name="Ellipse 3" cx="0.781" cy="0.781" r="0.781" transform="translate(7.5 10.82)"/>
            <circle id="Ellipse_4" data-name="Ellipse 4" cx="0.781" cy="0.781" r="0.781" transform="translate(4.102 7.422)"/>
            <circle id="Ellipse_5" data-name="Ellipse 5" cx="0.781" cy="0.781" r="0.781" transform="translate(4.102 10.82)"/>
            <circle id="Ellipse_6" data-name="Ellipse 6" cx="0.781" cy="0.781" r="0.781" transform="translate(4.102 14.219)"/>
            <circle id="Ellipse_7" data-name="Ellipse 7" cx="0.781" cy="0.781" r="0.781" transform="translate(7.5 14.219)"/>
            <circle id="Ellipse_8" data-name="Ellipse 8" cx="0.781" cy="0.781" r="0.781" transform="translate(7.5 7.422)"/>
          </g>
        </g>
      </g>
    </g>
    <path id="Gradient_Overlay" data-name="Gradient Overlay" d="M1532.547,98.273a4.726,4.726,0,1,1,4.726,4.727A4.732,4.732,0,0,1,1532.547,98.273Zm1.563,0a3.164,3.164,0,1,0,3.163-3.164A3.167,3.167,0,0,0,1534.109,98.273ZM1525.125,103A3.128,3.128,0,0,1,1522,99.875V87.687a3.129,3.129,0,0,1,3.125-3.125h.976v-.781a.781.781,0,0,1,1.563,0v.781h3.516v-.781a.781.781,0,1,1,1.562,0v.781h3.554v-.781a.782.782,0,0,1,1.563,0v.781h1.015A3.128,3.128,0,0,1,1542,87.687V92.14a.781.781,0,1,1-1.562,0V87.687a1.565,1.565,0,0,0-1.562-1.562h-1.015v.781a.782.782,0,0,1-1.563,0v-.781h-3.554v.781a.781.781,0,1,1-1.562,0v-.781h-3.516v.781a.781.781,0,0,1-1.562,0v-.781h-.976a1.564,1.564,0,0,0-1.562,1.562V99.875a1.564,1.564,0,0,0,1.562,1.562h5.977a.781.781,0,0,1,0,1.562Zm12.148-3.945a.782.782,0,0,1-.781-.782v-1.6a.782.782,0,0,1,1.563,0v.82h.351a.782.782,0,0,1,0,1.563ZM1529.5,98a.781.781,0,1,1,.781.781A.781.781,0,0,1,1529.5,98Zm-3.4,0a.781.781,0,1,1,.781.781A.781.781,0,0,1,1526.1,98Zm3.4-3.4a.781.781,0,1,1,.781.781A.781.781,0,0,1,1529.5,94.6Zm-3.4,0a.781.781,0,1,1,.781.781A.781.781,0,0,1,1526.1,94.6Zm10.2-3.4a.782.782,0,1,1,.781.781A.781.781,0,0,1,1536.3,91.2Zm-3.4,0a.781.781,0,1,1,.781.781A.781.781,0,0,1,1532.9,91.2Zm-3.4,0a.781.781,0,1,1,.781.781A.781.781,0,0,1,1529.5,91.2Zm-3.4,0a.781.781,0,1,1,.781.781A.781.781,0,0,1,1526.1,91.2Z" fill="url(#linear-gradient)"/>
  </g>
</svg>
