<svg width="175" height="210" viewBox="0 0 175 210" fill="none" xmlns="http://www.w3.org/2000/svg">
<g clip-path="url(#clip0)">
<path d="M6.94 9.88899C6.94 9.88899 45.697 0.278992 87.524 0.278992C129.238 0.278992 168.107 9.88899 168.107 9.88899C169.078 9.88886 170.039 10.08 170.936 10.4514C171.833 10.8228 172.648 11.3673 173.335 12.0537C174.021 12.7401 174.566 13.5551 174.937 14.452C175.309 15.3489 175.5 16.3102 175.5 17.281V202.108C175.5 204.069 174.721 205.949 173.334 207.335C171.948 208.721 170.068 209.5 168.107 209.5H7.679C5.71842 209.5 3.83814 208.721 2.45171 207.335C1.06528 205.949 0.286263 204.069 0.285997 202.108L-0.453003 17.281C-0.453003 16.3101 -0.261737 15.3487 0.109871 14.4517C0.481479 13.5548 1.02615 12.7398 1.71277 12.0534C2.39939 11.3669 3.21452 10.8225 4.11159 10.4511C5.00866 10.0797 5.9691 9.88873 6.94 9.88899Z" fill="#FFFEFD"/>
</g>
<defs>
<clipPath id="clip0">
<rect width="175" height="210" fill="white"/>
</clipPath>
</defs>
</svg>
