<svg xmlns="http://www.w3.org/2000/svg" xmlns:xlink="http://www.w3.org/1999/xlink" width="280" height="125.999" viewBox="0 0 280 125.999">
  <defs>
    <linearGradient id="linear-gradient" x1="-41.335" y1="31.283" x2="3.892" y2="-2.012" gradientUnits="objectBoundingBox">
      <stop offset="0" stop-color="#eec65f"/>
      <stop offset="0.23" stop-color="#a76f2a"/>
      <stop offset="0.33" stop-color="#e2b755"/>
      <stop offset="0.58" stop-color="#e2b755"/>
      <stop offset="0.69" stop-color="#8f5d21"/>
      <stop offset="1" stop-color="#e2b755"/>
    </linearGradient>
    <linearGradient id="linear-gradient-2" x1="-32.184" y1="26.956" x2="14.812" y2="-11.182" xlink:href="#linear-gradient"/>
    <linearGradient id="linear-gradient-3" x1="-24.86" y1="20.532" x2="22.53" y2="-16.918" xlink:href="#linear-gradient"/>
    <linearGradient id="linear-gradient-4" x1="-18.378" y1="16.521" x2="29.177" y2="-23.813" xlink:href="#linear-gradient"/>
    <linearGradient id="linear-gradient-5" x1="-15.991" y1="13.38" x2="35.246" y2="-26.715" xlink:href="#linear-gradient"/>
    <linearGradient id="linear-gradient-6" x1="-46.606" y1="36.448" x2="4.111" y2="-2.273" xlink:href="#linear-gradient"/>
    <linearGradient id="linear-gradient-7" x1="0.643" y1="0.401" x2="51.822" y2="-38.844" xlink:href="#linear-gradient"/>
    <linearGradient id="linear-gradient-8" x1="-6.978" y1="7.345" x2="42.924" y2="-38.418" xlink:href="#linear-gradient"/>
    <linearGradient id="linear-gradient-9" x1="-1.763" y1="2.282" x2="47.311" y2="-39.695" xlink:href="#linear-gradient"/>
    <linearGradient id="linear-gradient-10" x1="-55.821" y1="43.28" x2="1.761" y2="-0.48" xlink:href="#linear-gradient"/>
    <linearGradient id="linear-gradient-11" x1="-1.866" y1="2.241" x2="55.648" y2="-40.535" xlink:href="#linear-gradient"/>
    <linearGradient id="linear-gradient-12" x1="-12.152" y1="11.301" x2="44.192" y2="-36.719" xlink:href="#linear-gradient"/>
    <linearGradient id="linear-gradient-13" x1="-22.342" y1="28.621" x2="29.72" y2="-35.634" xlink:href="#linear-gradient"/>
    <linearGradient id="linear-gradient-14" x1="-16.939" y1="8.281" x2="4.363" y2="-1.212" xlink:href="#linear-gradient"/>
    <linearGradient id="linear-gradient-15" x1="-14.964" y1="11.398" x2="33.053" y2="-22.411" xlink:href="#linear-gradient"/>
    <linearGradient id="linear-gradient-16" x1="-34.193" y1="29.825" x2="12.395" y2="-9.571" xlink:href="#linear-gradient"/>
    <linearGradient id="linear-gradient-17" x1="-7.011" y1="7.478" x2="38.486" y2="-34.694" xlink:href="#linear-gradient"/>
    <linearGradient id="linear-gradient-18" x1="-23.299" y1="20.61" x2="23.42" y2="-18.929" xlink:href="#linear-gradient"/>
    <linearGradient id="linear-gradient-19" x1="-12.709" y1="9.087" x2="46.721" y2="-29.436" xlink:href="#linear-gradient"/>
    <linearGradient id="linear-gradient-20" x1="-41.578" y1="36.817" x2="9.942" y2="-7.681" xlink:href="#linear-gradient"/>
    <linearGradient id="linear-gradient-21" x1="-35.298" y1="33.622" x2="16.441" y2="-14.274" xlink:href="#linear-gradient"/>
    <linearGradient id="linear-gradient-22" x1="-9.945" y1="8.145" x2="52.654" y2="-38.015" xlink:href="#linear-gradient"/>
    <linearGradient id="linear-gradient-23" x1="-46.542" y1="45.489" x2="16.395" y2="-14.682" xlink:href="#linear-gradient"/>
    <linearGradient id="linear-gradient-24" x1="-51.32" y1="47.789" x2="8.416" y2="-6.725" xlink:href="#linear-gradient"/>
    <linearGradient id="linear-gradient-25" x1="-60.965" y1="44.256" x2="13.837" y2="-8.924" xlink:href="#linear-gradient"/>
    <linearGradient id="linear-gradient-26" x1="-62.328" y1="31.789" x2="13.02" y2="-5.675" xlink:href="#linear-gradient"/>
    <linearGradient id="linear-gradient-27" x1="-10.095" y1="5.514" x2="32.549" y2="-14.62" xlink:href="#linear-gradient"/>
    <linearGradient id="linear-gradient-28" x1="-22.36" y1="21.809" x2="39.678" y2="-35.951" xlink:href="#linear-gradient"/>
    <linearGradient id="linear-gradient-29" x1="-8.109" y1="8.631" x2="1.7" y2="-0.644" xlink:href="#linear-gradient"/>
    <linearGradient id="linear-gradient-30" x1="-0.371" y1="0.957" x2="1.021" y2="0.182" xlink:href="#linear-gradient"/>
    <linearGradient id="linear-gradient-31" x1="-7.953" y1="15.904" x2="15.03" y2="-25.751" xlink:href="#linear-gradient"/>
    <linearGradient id="linear-gradient-32" x1="-3.244" y1="3.725" x2="10.352" y2="-8.004" xlink:href="#linear-gradient"/>
    <linearGradient id="linear-gradient-33" x1="0.153" y1="0.672" x2="2.814" y2="-0.669" xlink:href="#linear-gradient"/>
    <linearGradient id="linear-gradient-34" x1="-1.274" y1="1.884" x2="2.49" y2="-1.34" xlink:href="#linear-gradient"/>
    <linearGradient id="linear-gradient-35" x1="0.116" y1="0.5" x2="40.157" y2="0.5" xlink:href="#linear-gradient"/>
    <linearGradient id="linear-gradient-36" x1="-1.538" y1="0.5" x2="42.369" y2="0.5" xlink:href="#linear-gradient"/>
    <linearGradient id="linear-gradient-37" x1="-2.598" y1="0.5" x2="34.593" y2="0.5" xlink:href="#linear-gradient"/>
    <linearGradient id="linear-gradient-38" x1="-3.759" y1="0.5" x2="30.821" y2="0.5" xlink:href="#linear-gradient"/>
    <linearGradient id="linear-gradient-39" x1="-6.568" y1="0.5" x2="36.354" y2="0.5" xlink:href="#linear-gradient"/>
    <linearGradient id="linear-gradient-40" x1="-8.13" y1="0.5" x2="34.292" y2="0.5" xlink:href="#linear-gradient"/>
    <linearGradient id="linear-gradient-41" x1="-22.245" y1="0.5" x2="12.331" y2="0.5" xlink:href="#linear-gradient"/>
    <linearGradient id="linear-gradient-42" x1="-33.874" y1="0.5" x2="15.384" y2="0.5" xlink:href="#linear-gradient"/>
    <linearGradient id="linear-gradient-43" x1="-31.02" y1="0.5" x2="11.761" y2="0.5" xlink:href="#linear-gradient"/>
    <linearGradient id="linear-gradient-44" x1="-32.904" y1="0.5" x2="10.019" y2="0.5" xlink:href="#linear-gradient"/>
    <linearGradient id="linear-gradient-45" x1="-32.238" y1="0.5" x2="7.815" y2="0.5" xlink:href="#linear-gradient"/>
    <linearGradient id="linear-gradient-46" x1="-35.856" y1="0.5" x2="6.565" y2="0.5" xlink:href="#linear-gradient"/>
    <linearGradient id="linear-gradient-47" x1="-33.893" y1="0.5" x2="4.322" y2="0.5" xlink:href="#linear-gradient"/>
    <linearGradient id="linear-gradient-48" x1="-39.853" y1="0.5" x2="3.07" y2="0.5" xlink:href="#linear-gradient"/>
    <linearGradient id="linear-gradient-49" x1="-41.634" y1="0.5" x2="1.294" y2="0.5" xlink:href="#linear-gradient"/>
  </defs>
  <g id="Логотип" transform="translate(-254.186 -86.31)">
    <g id="Group_13" data-name="Group 13">
      <g id="Group_11" data-name="Group 11">
        <path id="Path_18" data-name="Path 18" d="M282.865,119.575a82.539,82.539,0,0,1-6.681,6.659c-2.764,2.265-5.273,5.143-9.071,5.326-2,.1-3.448-.4-3.507.15s1.927,1.512,1.927,1.512-4.032,2.531-3.61,2.892,2.948-.964,4.333-1.446,2.467-.481,2.708-.181.681,1.009-.171,1.492-2.553.19-2.221.662c.858,1.22,4.427,1.469,5.252,1.289-.331.2-2.927,1.717-2.318,2.16.661.481,2.588-.964,5.776-2.892,5.335-3.226,9.632-7.823,13.721-12.473Zm-6.146,13.8c-1.159.869-2.836,1.531-3.964.481-1.878-1.745,8.372-6.945,9.448-7.5a58.2,58.2,0,0,1-4.616,6.234A5.863,5.863,0,0,1,276.719,133.373Z" fill="#3d3d3d"/>
        <path id="Path_19" data-name="Path 19" d="M317.153,150.905c-4.453-4.236-8.971-8.384-13.529-12.506,1.247-3.637,2.524-7.264,3.765-10.9,1.134-3.323,2.759-6.975,2.7-10.553-.052-3.537-2.985-6.8-5.111-9.36a22.549,22.549,0,0,1-3.406-4.392,13.457,13.457,0,0,1-.945-5.616c-.011-1.7,2.627-2.715,2.627-4.026s-2.627-2.9-2.627-2.9l-.747-1.685-1.72-.164c-1.487-1.049-3.564-2.412-5.453-2.481-3.176-.117-5.277,1.714-7.042,4.143a44.213,44.213,0,0,0-3.181,5.619s1.871,0,1.684.936a23.444,23.444,0,0,1-1.122,6.18c-1.123,3.183-3.086,5.524-2.806,6.179s2.992-1.123,2.992-.187a28.981,28.981,0,0,1-.748,4.681c-.561,3-3.18,5.244-2.992,5.805s1.309-.374,2.058-.187.374,2.622,1.683,4.119,4.3,2.248,4.3,2.248.467,2.434,1.122,2.247,2.338-3.933,2.806-5.056,2.057-7.116,2.619-6.929a6,6,0,0,1,2.057,3.745c0,1.311.562,2.622-1.122,7.116-.982,2.622-3.056,4.7-4.636,7-2.058,3-2.067,5.645-2,9.177a78.986,78.986,0,0,1,.028,9.727c-.352,3.312-.7,6.624-.848,9.951-.088,1.971.3,5.234-.648,7.028-1.043,1.962-1.761,4.99-3.492,6.492-.936.811-1.5,3.246-1.5,3.246s1,0,1.247.749.187,14.856.5,16.23-1.746,3.745-1.746,4.994,3.055,1.873,2.744,3.995-2.214,6.679-1.5,6.741,3.616-1.5,4.738-4.744a24.532,24.532,0,0,0,1.247-6.242,36.616,36.616,0,0,1-.358-13.885c.62-3.307,1.627-6.548,2.352-9.836a20.019,20.019,0,0,0,5.488-3.246c3.1-2.6,5.935-5.355,9.61-7.134,2.937-1.42,5.891-2.809,8.767-4.354,1.5-.807,2.987-1.656,4.43-2.57,1.083-.686,2.394-1.516,2.5-2.926C322.173,154.559,318.9,152.568,317.153,150.905ZM304,159c-3.741,2.808-9.165,9.363-9.165,9.363a86.665,86.665,0,0,0,3.742-10.112c1.309-4.682.748-7.3.748-7.3s2.057.749,4.489,1.686,7.294,3.558,7.294,3.558A12.993,12.993,0,0,0,304,159Z" fill="#3d3d3d"/>
      </g>
      <g id="Group_12" data-name="Group 12">
        <path id="Path_20" data-name="Path 20" d="M319.87,108.78c.01.384-.2.847-.452.91-.4.1-.584-.241-.822-.456a.5.5,0,0,1-.072-.112.868.868,0,0,1-.045-1.006.557.557,0,0,1,.722-.156A.854.854,0,0,1,319.87,108.78Z" fill-rule="evenodd" fill="url(#linear-gradient)"/>
        <path id="Path_21" data-name="Path 21" d="M337.155,161.187c.6.025.878.278.859.772a.843.843,0,0,1-.73.808.889.889,0,0,1-.743-1.015C336.558,161.3,336.7,161.168,337.155,161.187Z" fill-rule="evenodd" fill="url(#linear-gradient-2)"/>
        <path id="Path_22" data-name="Path 22" d="M273.684,112.156c-.014-.574.267-.97.688-.966a.821.821,0,0,1,.773.772.8.8,0,0,1-.7.838A.659.659,0,0,1,273.684,112.156Z" fill-rule="evenodd" fill="url(#linear-gradient-3)"/>
        <path id="Path_23" data-name="Path 23" d="M319.186,183.562a.583.583,0,0,1,.641-.6,1,1,0,0,1,.811.987.531.531,0,0,1-.581.507A.866.866,0,0,1,319.186,183.562Z" fill-rule="evenodd" fill="url(#linear-gradient-4)"/>
        <path id="Path_24" data-name="Path 24" d="M260.631,126.677q.02-.63.77-.6c.418.014.589.224.582.707-.007.432-.3.8-.636.8A.9.9,0,0,1,260.631,126.677Z" fill-rule="evenodd" fill="url(#linear-gradient-5)"/>
        <path id="Path_25" data-name="Path 25" d="M338.595,129.93a.708.708,0,0,1-.667.766.746.746,0,0,1-.7-.822c.01-.409.253-.752.522-.736A.9.9,0,0,1,338.595,129.93Z" fill-rule="evenodd" fill="url(#linear-gradient-6)"/>
        <path id="Path_26" data-name="Path 26" d="M270.523,183.122c-.478-.009-.863-.091-1.049-.575-.149-.384-.122-.772.108-.912a.962.962,0,0,1,1.043.375C270.8,182.318,270.776,182.6,270.523,183.122Z" fill-rule="evenodd" fill="url(#linear-gradient-7)"/>
        <path id="Path_27" data-name="Path 27" d="M256.8,145.025a.575.575,0,0,1,.654.576.746.746,0,0,1-.7.742.679.679,0,0,1-.691-.65C256.041,145.329,256.359,145.041,256.8,145.025Z" fill-rule="evenodd" fill="url(#linear-gradient-8)"/>
        <path id="Path_28" data-name="Path 28" d="M257.171,161.932a3.337,3.337,0,0,1-.325-.368.9.9,0,0,1,.073-.985,1.138,1.138,0,0,1,1,.075.452.452,0,0,1,.012.775C257.715,161.6,257.468,161.739,257.171,161.932Z" fill-rule="evenodd" fill="url(#linear-gradient-9)"/>
        <path id="Path_29" data-name="Path 29" d="M335.283,120.7a.714.714,0,0,1-.573-.778c.043-.393.26-.62.577-.6a.619.619,0,0,1,.62.713A.682.682,0,0,1,335.283,120.7Z" fill-rule="evenodd" fill="url(#linear-gradient-10)"/>
        <path id="Path_30" data-name="Path 30" d="M265.668,170.523a.576.576,0,0,1-.568.673c-.356.013-.616-.277-.635-.706s.125-.68.426-.7A.749.749,0,0,1,265.668,170.523Z" fill-rule="evenodd" fill="url(#linear-gradient-11)"/>
        <path id="Path_31" data-name="Path 31" d="M301.012,186.707a.619.619,0,0,1-.641-.551.772.772,0,0,1,.669-.706.654.654,0,0,1,.56.636A.7.7,0,0,1,301.012,186.707Z" fill-rule="evenodd" fill="url(#linear-gradient-12)"/>
        <path id="Path_32" data-name="Path 32" d="M262.826,112.793a.962.962,0,0,1,1.058-.2c.29.107.366.353.149.563a1.033,1.033,0,0,1-.611.3C263.072,113.464,262.9,113.188,262.826,112.793Z" fill-rule="evenodd" fill="url(#linear-gradient-13)"/>
        <path id="Path_33" data-name="Path 33" d="M313.716,119.184c-.143-.056-.247-.065-.3-.12-.635-.742-1.3-1.465-1.882-2.245a3.567,3.567,0,0,1-.669-2.4c.017-.311.032-.623.034-.934,0-.367.3-.464.542-.609s.43.012.585.175a6.511,6.511,0,0,1,2.038,3.445A5.628,5.628,0,0,1,313.716,119.184Zm-2.253-5.49c-.512,1.513.665,4,2.027,4.474a3.63,3.63,0,0,0-.843-3.451c.052.341.118.645.138.952s.128.678-.375.789C312.147,115.527,312.369,114.459,311.463,113.694Z" fill-rule="evenodd" fill="url(#linear-gradient-14)"/>
        <path id="Path_34" data-name="Path 34" d="M306.435,177.845c.007.526-.3.94-.66.9a.959.959,0,0,1-.773-1.069.754.754,0,0,1,.807-.71C306.211,177.015,306.427,177.317,306.435,177.845Z" fill-rule="evenodd" fill="url(#linear-gradient-15)"/>
        <path id="Path_35" data-name="Path 35" d="M328.513,145.791a.73.73,0,0,1,.76-.8c.436,0,.7.217.725.6a.823.823,0,0,1-.725.936A.712.712,0,0,1,328.513,145.791Z" fill-rule="evenodd" fill="url(#linear-gradient-16)"/>
        <path id="Path_36" data-name="Path 36" d="M282.93,172.884a.728.728,0,0,1,.734.706.7.7,0,0,1-.706.725.966.966,0,0,1-.816-.838C282.156,173.2,282.578,172.885,282.93,172.884Z" fill-rule="evenodd" fill="url(#linear-gradient-17)"/>
        <path id="Path_37" data-name="Path 37" d="M319.278,167.99c0-.559.261-.744.69-.542a2.333,2.333,0,0,1,.6.418.6.6,0,0,1,.081.789.615.615,0,0,1-.781.163A1.028,1.028,0,0,1,319.278,167.99Z" fill-rule="evenodd" fill="url(#linear-gradient-18)"/>
        <path id="Path_38" data-name="Path 38" d="M267.126,146.594a4.538,4.538,0,0,1-.174.639c-.131.325-.342.367-.628.165-.208-.146-.462-.8-.326-1.012a1.028,1.028,0,0,1,.546-.4C266.935,145.875,267.116,146.056,267.126,146.594Z" fill-rule="evenodd" fill="url(#linear-gradient-19)"/>
        <path id="Path_39" data-name="Path 39" d="M321.121,125.428a.83.83,0,0,1-.672.784.684.684,0,0,1-.673-.675.677.677,0,0,1,1.345-.109Z" fill-rule="evenodd" fill="url(#linear-gradient-20)"/>
        <path id="Path_40" data-name="Path 40" d="M331.585,155a.754.754,0,0,1-.756.7.64.64,0,0,1-.583-.619.672.672,0,0,1,.713-.64C331.342,154.464,331.6,154.691,331.585,155Z" fill-rule="evenodd" fill="url(#linear-gradient-21)"/>
        <path id="Path_41" data-name="Path 41" d="M269.618,158.675c0-.367.145-.542.437-.535a.621.621,0,0,1,.67.657.68.68,0,0,1-.626.65C269.819,159.433,269.613,159.1,269.618,158.675Z" fill-rule="evenodd" fill="url(#linear-gradient-22)"/>
        <path id="Path_42" data-name="Path 42" d="M323.1,137.665a.468.468,0,0,1-.539.455.519.519,0,0,1-.562-.526.512.512,0,0,1,.539-.477A.577.577,0,0,1,323.1,137.665Z" fill-rule="evenodd" fill="url(#linear-gradient-23)"/>
        <path id="Path_43" data-name="Path 43" d="M311.7,107.765a.668.668,0,0,1,.58.685.5.5,0,0,1-.515.421.65.65,0,0,1-.64-.619A.5.5,0,0,1,311.7,107.765Z" fill-rule="evenodd" fill="url(#linear-gradient-24)"/>
        <path id="Path_44" data-name="Path 44" d="M339.381,145.974c-.006.4-.127.592-.372.591a.711.711,0,0,1-.555-.574.7.7,0,0,1,.492-.561C339.193,145.413,339.386,145.655,339.381,145.974Z" fill-rule="evenodd" fill="url(#linear-gradient-25)"/>
        <path id="Path_45" data-name="Path 45" d="M325.4,127.794a6.4,6.4,0,0,1,.342.895.557.557,0,0,1-.386.688c-.228.075-.461,0-.494-.2a2.3,2.3,0,0,1,.053-.913C324.952,128.109,325.168,128,325.4,127.794Z" fill-rule="evenodd" fill="url(#linear-gradient-26)"/>
        <path id="Path_46" data-name="Path 46" d="M297.853,178.383c.13.2.256.311.262.422a2.86,2.86,0,0,0,1.13,2.184c.074.06.063.224.092.34-.1.015-.229.078-.306.039a2.753,2.753,0,0,1-1.1-1.466A1.713,1.713,0,0,1,297.853,178.383Z" fill-rule="evenodd" fill="url(#linear-gradient-27)"/>
        <path id="Path_47" data-name="Path 47" d="M315.327,182.933a.49.49,0,0,1-.556-.439.609.609,0,0,1,.58-.6.474.474,0,0,1,.535.455A.524.524,0,0,1,315.327,182.933Z" fill-rule="evenodd" fill="url(#linear-gradient-28)"/>
        <path id="Path_48" data-name="Path 48" d="M308.81,109.053c0,.025-.01.058-.012.087.324.421.64.855.946,1.3a.648.648,0,0,0,.288-.1c.078-.047.255.047.379.1a5.62,5.62,0,0,0,3.984-.186.869.869,0,0,0,.585-1.067c-.059-.325-.175-.641-.274-.992a3.279,3.279,0,0,0,.354-.451,5.83,5.83,0,0,0,.582-1.189,1.077,1.077,0,0,0-.763-1.362,1.636,1.636,0,0,0-1.478.109c-.123.074-.249.141-.372.211a2.208,2.208,0,0,0-2.734-1.189,1.136,1.136,0,0,0-.762.6c-.184.329-.34.676-.527,1a2.714,2.714,0,0,0-.329,1.935A7.266,7.266,0,0,1,308.81,109.053Zm1.448-4.023a.73.73,0,0,1,.4-.22,1.7,1.7,0,0,1,1.857.864,7.486,7.486,0,0,0,.572.769c.128-.161.208-.261.284-.363a1.135,1.135,0,0,1,1.175-.42c.619.172.814.523.535,1.1a4.851,4.851,0,0,1-.663.9,6.025,6.025,0,0,1-.447.444,9.354,9.354,0,0,1,.47.875c.169.415.05.743-.36.862a4.777,4.777,0,0,1-3.709.052,2.109,2.109,0,0,1-1.22-1.572A3.977,3.977,0,0,1,310.257,105.03Z" fill-rule="evenodd" fill="url(#linear-gradient-29)"/>
        <path id="Path_49" data-name="Path 49" d="M341.515,146.481c.054-.12.1-.219.143-.322.354-.883.256-1.226-.507-1.806-.107-.081-.2-.175-.313-.253a2.36,2.36,0,0,0-2.966-.013c-.5.348-.72.361-1.183-.041-.436-.381-.84-.8-1.246-1.214a1.378,1.378,0,0,1-.384-1.037,9.634,9.634,0,0,0-.054-1.4,21.189,21.189,0,0,0-1.616-5.571c-.116-.277-.209-.566-.315-.851a14.015,14.015,0,0,1,1.309.733c.433.225.923.335,1.362.547a6.683,6.683,0,0,0,3.391.589,4.84,4.84,0,0,0,1.4-.4,2.145,2.145,0,0,0,.545-.447c-.771-.729-1.475-1.405-2.191-2.065a1.616,1.616,0,0,0-.554-.367A5.228,5.228,0,0,0,335,132.3c-.531.171-1.055.359-1.57.571-.634.26-.664.214-1.062-.347a32.306,32.306,0,0,0-1.888-3.018,13.032,13.032,0,0,1-1.333-2.356c.929.3,1.747.562,2.569.816a2.343,2.343,0,0,0,1.637.1c.738-.31,1.462-.658,2.182-1.01.166-.08.362-.2.293-.454-.043-.028-.08-.075-.115-.072a3.071,3.071,0,0,1-2.141-.754c-.295-.234-.64-.4-.959-.607a2.915,2.915,0,0,0-2.874-.2c-.509.216-1.025.411-1.58.634-.325-.445-.609-.87-.926-1.269-.51-.644-1.013-1.3-1.568-1.9-.39-.42-.89-.735-1.293-1.143s-.755-.878-1.132-1.319a.52.52,0,0,1-.146-.6c.4.129.781.224,1.139.378.549.237,1.081.515,1.62.774a2.194,2.194,0,0,0,1.873-.081,7.782,7.782,0,0,0,2.246-1.545c.16-.146.392-.308.271-.652a2.76,2.76,0,0,1-1.794-.343,3.775,3.775,0,0,0-.7-.219,2.6,2.6,0,0,0-2.052.371,3.6,3.6,0,0,0-.8.71.893.893,0,0,1-1.074.287,4.173,4.173,0,0,0-1.217-.312.972.972,0,0,1-.8-.362,21.694,21.694,0,0,0-3.168-2.665c-.489-.326-.943-.7-1.489-1.115a4.412,4.412,0,0,1,2.244-.335,3.779,3.779,0,0,0,2.034-.24c.776-.28,1.1-.992,1.531-1.6.043-.06-.075-.341-.164-.368a5.039,5.039,0,0,0-1.667-.4,3.171,3.171,0,0,0-2.571,1.588,1.18,1.18,0,0,1-.77.587,7.469,7.469,0,0,1-.982.19,2.238,2.238,0,0,1-1.334-.294,24.52,24.52,0,0,0-4.319-1.943c-.232-.074-.469-.154-.7-.232.12.2.223.413.335.62q1.354.5,2.688,1.056a23.055,23.055,0,0,1,2.453,1.351c.638.361,1.286.71,1.905,1.1a3.125,3.125,0,0,1,.543.571,4.539,4.539,0,0,0-.993,2.387,9.291,9.291,0,0,0,.443,3.893c.074.288.112.584.189,1a.485.485,0,0,0,.673-.106,4.517,4.517,0,0,0,1.6-3.06,5.75,5.75,0,0,0-.289-2.176c-.106-.286-.19-.58-.3-.907.341-.064.477.153.612.293.824.842,1.705,1.639,2.442,2.56a8.734,8.734,0,0,0,1.977,2.169,6.643,6.643,0,0,1,.961,1.105,1.393,1.393,0,0,1,.248.609,4.988,4.988,0,0,1,.045,1c-.048,1.008-.226.937-.922.911a1.546,1.546,0,0,0-1.594.989c-.286.653-.591,1.3-.892,1.944a.54.54,0,0,0,.212.755,1.03,1.03,0,0,1,.523.922,2.009,2.009,0,0,0,1.429,1.527.593.593,0,0,0,.65-.232c.132-.177.252-.364.388-.562a.829.829,0,0,1,.263.027,1.293,1.293,0,0,0,1.624-.359,1.01,1.01,0,0,0,.343-.757,4.469,4.469,0,0,0-1.292-3.532.9.9,0,0,1-.3-.894c.074-.456.085-.922.129-1.465a2.823,2.823,0,0,1,.886.951c.628,1,1.227,2.019,1.833,3.032.24.4.468.81.7,1.215a.8.8,0,0,1-.059.978,9.337,9.337,0,0,0-1.672,3.178,4.1,4.1,0,0,0-.114.986c0,.437.068.874.114,1.383a1.575,1.575,0,0,0,1.492-.579,5.274,5.274,0,0,0,1.054-2c.167-.528.3-1.064.458-1.607.345-.009.43.256.532.455.342.676.661,1.363.988,2.048.181.382.357.768.535,1.153a4.1,4.1,0,0,1,.03,3.431,2.594,2.594,0,0,1-1.284,1.209,22.571,22.571,0,0,1-2.881,1.23,1.807,1.807,0,0,1-1.558-.065.532.532,0,0,0-.466.078c-.066.049-.053.311.016.415.295.443.612.874.942,1.293a1.261,1.261,0,0,0,1.569.356,6.135,6.135,0,0,0,2.676-2.043,10.013,10.013,0,0,0,1.357-2.3c.1-.211.229-.4.376-.656.118.143.207.2.222.276a8.289,8.289,0,0,1,.3,3.166,7.343,7.343,0,0,0,.117,1.925c.056.577.109,1.156.218,1.724a3.817,3.817,0,0,1-.669,2.393c-.166.36-.537.331-.88.341a17.2,17.2,0,0,0-1.791.1,2.5,2.5,0,0,0-1.66,1.034c-.308.4-.647.777-1,1.2.1.091.173.214.28.252a2.325,2.325,0,0,0,1.637.063,6.407,6.407,0,0,0,2.055-1.087c.666-.582,1.335-1.158,2.046-1.774q-.189,1.1-.38,2.208c-.136.79-.288,1.58-.406,2.375-.044.3-.128.628.225.841a.277.277,0,0,1,.085.235,5.222,5.222,0,0,1-.344,1.895,13.1,13.1,0,0,0-.639,1.324.712.712,0,0,1-.611.438,12.223,12.223,0,0,0-3.435,1.268,3.2,3.2,0,0,0-.649.57,9.435,9.435,0,0,1-.739.635.3.3,0,0,0,.184.461,2.336,2.336,0,0,0,.959.2,3.642,3.642,0,0,0,1.965-.767c.446-.37.92-.7,1.386-1.045a3.6,3.6,0,0,1,.434-.229,1.545,1.545,0,0,1-.536,1.357,2.534,2.534,0,0,0-.586,1.094,11.624,11.624,0,0,1-1.785,3.192.449.449,0,0,1-.606.117,7.138,7.138,0,0,0-3.207-.482,5.757,5.757,0,0,0-2.856.568,6.821,6.821,0,0,0-1.8,1,1.686,1.686,0,0,1-.529.23c-.092.226,0,.348.212.4,1.166.289,2.331.591,3.5.852a2.164,2.164,0,0,0,.862-.044q1.049-.208,2.087-.474a3.06,3.06,0,0,0,.659-.311,4.385,4.385,0,0,1,.693-.347,4.038,4.038,0,0,1-.859,1.57c-.186.225-.206.209-.893.146a4.892,4.892,0,0,0-.3.994,1.722,1.722,0,0,1-.532,1.046,14.5,14.5,0,0,0-1.068,1.2,2.893,2.893,0,0,1-2.118,1.084c-.285.041-.58.028-.868.06a1.146,1.146,0,0,1-1.234-.585,2,2,0,0,0-.706-.584,6.9,6.9,0,0,0-2.968-.943,4.4,4.4,0,0,1-1.167-.416c-.15-.057-.293-.132-.552-.251a4.832,4.832,0,0,0,.046.635c.1.435.209.868.337,1.294a1.086,1.086,0,0,0,.23.389,5.193,5.193,0,0,0,2.627,1.51,1.976,1.976,0,0,0,1.5-.221,3.712,3.712,0,0,1,2.127-.422c.3.012.6.012,1.023.019a14.563,14.563,0,0,1-2.365,1.909c-.738.634-1.555,1.179-2.3,1.736-.609-.313-1.132-.612-1.679-.86a3.445,3.445,0,0,0-2.157-.25c-.376.078-.432.218-.241.556a2.929,2.929,0,0,0,1.718,1.3c.248.085.5.156.835.26-.142.143-.221.28-.34.334-.463.212-.94.392-1.41.593-.2.087-.4.195-.6.289-.52.245-1.034.513-1.57.714a.723.723,0,0,1-.618-.07,5.352,5.352,0,0,0-2.452-.991c-.432-.1-.868-.2-1.3-.306a1.438,1.438,0,0,0-1.178.177,1.369,1.369,0,0,0,.946,1.306c.535.212,1.1.364,1.649.537.226.07.459.123.853.229-.321.138-.489.222-.665.283-.731.262-1.455.553-2.2.766-.893.258-1.8.45-2.723.675a6.282,6.282,0,0,0-3.947-4c-.334.473-.076,1.6.5,2.655.514.945,1.487,1.125,2.458,1.581a26.951,26.951,0,0,1-4.838.4c.047-.26.073-.471.123-.675a3.56,3.56,0,0,0-1.366-4.029c-.431-.324-.845-.669-1.272-1-.131.1-.262.2-.394.3a5.69,5.69,0,0,1,2.406,2.286,3.006,3.006,0,0,1-.4,3.288,1.743,1.743,0,0,1-.517-.23,6.9,6.9,0,0,1-2.126-2.935,8.088,8.088,0,0,1-.252-1.772c-.157.105-.313.206-.467.3a5.214,5.214,0,0,0,1.061,3.108c.439.5.853,1.015,1.358,1.618-.937.012-1.794.023-2.652.029-.263,0-.521-.06-.735.194-.077.087-.289.1-.435.084-.333-.021-.662-.076-1.019-.121a2.882,2.882,0,0,1-.159-.361q-.234-.808-.466-1.619c-.135.535-.265,1.069-.4,1.6-.015.059-.028.113-.043.172.041.047.077.09.12.138-.056.005-.1-.007-.154-.005-.044.171-.083.335-.127.5.312.025.624.04.943.042a2.136,2.136,0,0,1,1.363.286c-.456.458-.863.9-1.3,1.3a3.419,3.419,0,0,0-.993,2c-.109.588.11.794.639.551a6.788,6.788,0,0,0,1.434-.84,8.338,8.338,0,0,0,2.771-2.925.911.911,0,0,1,1.062-.591,3.837,3.837,0,0,0,1.461-.024,9.312,9.312,0,0,1,2.853-.22,2.147,2.147,0,0,1,.432.11c-.3.445-.562.823-.812,1.214-.332.518-.333.524-.976.421a2.164,2.164,0,0,0-2.509,1.2c-.236.421-.37.829.074,1.166-.14.367-.286.69-.39,1.027a1.682,1.682,0,0,0,.786,1.781,1.212,1.212,0,0,0,1.481-.2c.21-.162.408-.339.6-.5.809.527,1.243.4,1.635-.474.173-.387.349-.772.5-1.166a.873.873,0,0,0,.035-.456,2.64,2.64,0,0,0-1.175-1.645c-.167-.119-.34-.1-.436.211a4.846,4.846,0,0,1,.487.38c.363.364.765.74.633,1.317a7.464,7.464,0,0,1-.445,1.19c-.1.225-.237.516-.515.408-.18-.07-.28-.356-.4-.553-.032-.05,0-.142-.029-.195a2.737,2.737,0,0,0-.22-.3c-.088.108-.185.211-.263.325a.493.493,0,0,0-.038.2c-.076.586-.52.859-.966,1.118a.582.582,0,0,1-.682-.1,1.332,1.332,0,0,1,.058-2.174c.153-.111.326-.195.59-.351a4.294,4.294,0,0,0-.458-.233,4.934,4.934,0,0,0-.49-.111c.171-1.053.727-1.524,1.692-1.462.331.02.659.1.991.133a.574.574,0,0,0,.629-.278c.344-.62.715-1.227,1.051-1.855a.574.574,0,0,1,.468-.306c.985-.192,1.961-.41,2.945-.606a6.073,6.073,0,0,1,1.763-.214c-.263.379-.463.7-.694.992a4.422,4.422,0,0,0-.62,4.068c.3,1.191,1.175,1.5,2.334,1.341a8.169,8.169,0,0,0,1.593-.494,2.813,2.813,0,0,0,.524-.33c.023-.05.045-.1.067-.152-.964-.211-1.05-.979-1.238-1.685a1.637,1.637,0,0,0-.809-1.022c-.425-.244-.864-.463-1.294-.7-.146-.081-.288-.175-.47-.286.358-.534.682-1.011,1-1.492a2.973,2.973,0,0,1,1.826-1.253,8.706,8.706,0,0,0,1.369-.514c.445-.2.864-.468,1.284-.259.783-.774,1.781-.836,2.718-1.266-.344.715-.607,1.325-.932,1.9a.818.818,0,0,1-.549.307,2.018,2.018,0,0,0-1.492,1.018c-.255.418-.508.842-.744,1.271a.99.99,0,0,0,.423,1.366,4.68,4.68,0,0,0,.5.194c.024.22.058.418.065.617a.929.929,0,0,0,1.1.809,1.287,1.287,0,0,0,.812-.545c.128-.174.263-.34.392-.508a6.037,6.037,0,0,0,.611.261,1,1,0,0,0,1.256-1.12,4.815,4.815,0,0,0-1.494-2.982.861.861,0,0,1-.273-.708,1.891,1.891,0,0,1,.616-1.23c.324-.386.178-.971.592-1.276.392-.29.831-.513,1.232-.793.856-.6,1.7-1.218,2.552-1.819a2.737,2.737,0,0,1,.442-.2c0,.447-.026.822.006,1.193.079.9.17,1.805.29,2.7a7.734,7.734,0,0,0,.29,1.3c.139.444.264.943.734,1.151a6.62,6.62,0,0,0,1.571.535,9.31,9.31,0,0,0,3.946-.532c.317-.084.333-.329.276-.588-.1-.456-.225-.91-.321-1.368a1.781,1.781,0,0,0-1.059-1.286,6.256,6.256,0,0,0-2.976-.643,4.054,4.054,0,0,1-1.8-.458.737.737,0,0,1-.522-.707,6.224,6.224,0,0,1,.107-1.331,2.284,2.284,0,0,1,.557-.957c.355-.363.807-.63,1.2-.964.555-.479,1.11-.964,1.634-1.476.54-.531,1.043-1.1,1.568-1.647.13-.135.243-.341.5-.23a1.7,1.7,0,0,1,.071.184,1.585,1.585,0,0,1,.061.329,5.391,5.391,0,0,0,1,2.728,2.7,2.7,0,0,0,.4.533.423.423,0,0,0,.741-.165,1.347,1.347,0,0,0,.058-.392c.031-.534.052-1.069.087-1.6a3.494,3.494,0,0,0-.822-2.738c-.159-.177-.289-.382-.441-.585.178-.286.339-.526.486-.773.6-1.014,1.2-2.034,1.806-3.044a3.3,3.3,0,0,1,.929-1.185c.572,1.818,1.611,2.881,2.8,2.833-.029-.263-.044-.522-.085-.778-.161-.991-.33-1.979-.492-2.969a2.672,2.672,0,0,0-.6-1.394,3.836,3.836,0,0,1-.254-.351,14.583,14.583,0,0,0,.706-2.024,24.067,24.067,0,0,1,1.314-3.465c.069.013.1.01.109.023.082.129.167.259.242.394a6.262,6.262,0,0,0,2.094,2.208,4.01,4.01,0,0,0,2.478.879.964.964,0,0,0,.85-.382,3.881,3.881,0,0,1-.362-.667,8.7,8.7,0,0,0-1.172-2.243,4.36,4.36,0,0,0-2.875-2.113c-.542-.1-1.129-.236-1.069-1.01a1.133,1.133,0,0,1-.19-1.079,15.333,15.333,0,0,0,.279-2.434,16.851,16.851,0,0,0-.131-3.936c-.051-.381-.041-.772-.066-1.323.569.528.987.953,1.446,1.327a.762.762,0,0,1,.306.922,2.173,2.173,0,0,0,.029,1.514,8.082,8.082,0,0,0,.8,1.462,1.607,1.607,0,0,0,.7.447,1.446,1.446,0,0,0,1.389-.151,5.547,5.547,0,0,1,.459.334c.582.521.823.368,1.311-.1a1.487,1.487,0,0,0,.362-.691A1.892,1.892,0,0,0,341.515,146.481ZM334.3,133.1a2.237,2.237,0,0,1,1.18-.46,5.215,5.215,0,0,1,2.689.357,1.116,1.116,0,0,1,.4.241c.548.551,1.083,1.113,1.662,1.716a1.661,1.661,0,0,1-1.3.476,6.738,6.738,0,0,1-3.179-.656,4.108,4.108,0,0,0-.818-.282,1.9,1.9,0,0,1-1.357-1.11c.3.108.6.217.9.322.715.249,1.425.517,2.148.734a.879.879,0,0,0,1.16-.458A5.841,5.841,0,0,1,334.3,133.1Zm-2.114-7.651c.8.454,1.548,1.01,2.364,1.552-.976.54-1.9,1.017-3,.383.336-.137.757.277,1.1-.263-.282-.1-.495-.188-.714-.245-.475-.124-.958-.212-1.43-.347a1.914,1.914,0,0,1-1.249-.842A3.019,3.019,0,0,1,332.189,125.449Zm-3.007-6.632a2.928,2.928,0,0,1-3.744,1.01c.839-.313,1.676-.26,2.421-.593.017-.009.007-.08.012-.171-.851-.4-1.668.161-2.512.143C326.035,117.691,327.979,117.881,329.182,118.817Zm-8.8-5.877c-.26.011-.517.064-.783.1a1.9,1.9,0,0,1,2.543-.632c-.054.934-1.1,1.529-2.569,1.306.172-.068.345-.141.52-.206a1.816,1.816,0,0,0,.376-.125.329.329,0,0,0,.137-.262A.3.3,0,0,0,320.382,112.939Zm-1.832,9.9a5.885,5.885,0,0,1-.059-5.8,3.059,3.059,0,0,1,.368,1.8,12.077,12.077,0,0,1-.4,1.8.591.591,0,0,0,.7-.52,10.967,10.967,0,0,0,.173-1.321c.021-.218,0-.441,0-.671A3.692,3.692,0,0,1,318.55,122.841Zm8.941,7.069a1.746,1.746,0,0,1-.059.4.823.823,0,0,1-1.315.486c-.178-.119-.341-.263-.582-.449-.134.352-.224.618-.337.877-.166.374-.315.421-.68.239a1.4,1.4,0,0,1-.785-1.428c.013-.153.045-.3.068-.45-.644-.329-.691-.341-.5-1.018a7,7,0,0,1,.692-1.657,1.476,1.476,0,0,1,2.141-.127A3.676,3.676,0,0,1,327.491,129.91Zm2,5.2a.719.719,0,0,1-.707.343,1.716,1.716,0,0,1-.224-1.5,6.682,6.682,0,0,1,1.454-2.725l.167.057a3.239,3.239,0,0,1-1.094,2.032.957.957,0,0,0,1.112-.589,13.1,13.1,0,0,0,.463-1.3,1.214,1.214,0,0,1,.08.414A7.516,7.516,0,0,1,329.493,135.11Zm1.314,7.331a14.9,14.9,0,0,1-1.523.658.844.844,0,0,1-.627-.085,1.491,1.491,0,0,1-.753-1c.612-.108,1.166-.166,1.7-.313.5-.136.977-.364,1.488-.5a3.476,3.476,0,0,1-1.355.866c-.166.056-.4.063-.323.31.094.286.327.155.5.075.343-.155.676-.334,1.016-.494a2.135,2.135,0,0,1,.331-.084A.852.852,0,0,1,330.807,142.441Zm1.448,7.165a2.42,2.42,0,0,1-2.546.848,2.683,2.683,0,0,1,1.158-1.44,2.269,2.269,0,0,1,1.81-.306c-.577.647-1.277.56-1.9.744C331.093,149.727,331.093,149.727,332.254,149.606ZM328.738,160.1a1.189,1.189,0,0,1,.6-.952,8.663,8.663,0,0,1,3.129-1.258c.056-.013.126.026.259.056C331.484,159.284,329.959,160.438,328.738,160.1Zm-2.394,5.392c.654-.052,1.3-.155,2.07-.249a5.722,5.722,0,0,1-6.3.367,5.375,5.375,0,0,1,2.782-1.332,5.613,5.613,0,0,1,3.9.277,3.727,3.727,0,0,1-.6.283,9.792,9.792,0,0,1-3.105.322c-.23-.015-.483-.109-.716.211A4.721,4.721,0,0,0,326.344,165.491Zm-7.378,5.345c-.154-.155-.247-.452-.571-.327.049.585.1.631,2.029,1.673a1.427,1.427,0,0,1-1.689-.051,1.036,1.036,0,0,0-.293-.15,2.925,2.925,0,0,1-1.977-2.084c.24.072.438.13.633.195a2.181,2.181,0,0,0,1.3.151,1.012,1.012,0,0,1,.574.1c.454.178.9.372,1.342.579a.836.836,0,0,1,.524.7A2.625,2.625,0,0,1,318.966,170.835Zm-22.783,12.893-.013.051-.052.025a9.638,9.638,0,0,1-3.33,2.713,1.7,1.7,0,0,1,.338-1.334c.591-.6,1.228-1.152,1.868-1.7a3.183,3.183,0,0,1,.761-.329c-.114.366-.355.379-.521.483-.188.116-.373.239-.552.371a8.3,8.3,0,0,0-.784.611.546.546,0,0,0-.131.726,11.419,11.419,0,0,1,1.1-.92,10.742,10.742,0,0,1,1.247-.627c.011-.015.025-.027.036-.042s.018-.021.029-.034c.055-.216.111-.438.2-.79C296.443,183.417,296.438,183.444,296.183,183.729Zm8.674-2.857c-.144-.772-.885-1.054-1.3-1.6-.041-.054-.152-.054-.248-.085-.2.421.132.58.326.792.206.228.429.442.722.741a2.689,2.689,0,0,1-1.946-2.57c1,.063,2.224,1.242,2.79,2.721A1.751,1.751,0,0,1,304.857,180.871Zm3.341,3q.57.275,1.113.6a1.7,1.7,0,0,1,.711,1.014c.152.484.324.964.494,1.46a2.092,2.092,0,0,1-2.181.344,1.907,1.907,0,0,1-.895-2.023c.44.312.805.595,1.2.837a1.4,1.4,0,0,0,.618.2c.29.02.378-.165.3-.434a1.763,1.763,0,0,1-1.784-2.062A1.428,1.428,0,0,1,308.2,183.871Zm3.413-4.833a5.985,5.985,0,0,1-2.649-.712.406.406,0,0,1-.242-.542,2.415,2.415,0,0,1,1.56.268,8.41,8.41,0,0,1,1.183.7c.07.044.132.1.2.151C311.643,178.947,311.628,178.993,311.611,179.038Zm4.4,2.632a12.57,12.57,0,0,1,.7,1.139,1.492,1.492,0,0,1,.027,1.358c-.165.4-.327.46-.718.252-.532-.283-.533-.283-.884.225-.087.128-.17.262-.249.4a.633.633,0,0,1-.733.33c-.349-.07-.36-.355-.394-.619a4.506,4.506,0,0,1,0-.476c.02-.442.02-.442-.507-.456-.395-.011-.506-.106-.509-.445a3.12,3.12,0,0,1,1.706-2.3A1.3,1.3,0,0,1,316.007,181.67Zm1.442-5.376a2.929,2.929,0,0,1-2.078-1.219,3.4,3.4,0,0,1,2.99.98C318.11,176.452,317.738,176.338,317.448,176.294Zm4.654,1.2a11.284,11.284,0,0,0,2.891.43,7.548,7.548,0,0,1,1.935.679.883.883,0,0,1,.386.443,11.487,11.487,0,0,1,.424,1.758,5.749,5.749,0,0,1-4.6.33,1.626,1.626,0,0,1-1.058-1.35c-.047-.306-.109-.609-.132-.939a5.331,5.331,0,0,0,1.718,1.408,4.684,4.684,0,0,0,.99.387.459.459,0,0,0,.633-.323c.073-.313-.069-.5-.4-.6-.043.16-.08.3-.115.431a3.737,3.737,0,0,1-2.833-2.6C322.023,177.513,322.072,177.477,322.1,177.489Zm6.218-8.8a2.267,2.267,0,0,1,.729,1.383,6.852,6.852,0,0,1-.2,2.531,3.662,3.662,0,0,1-1.077-2.009c-.075-.391-.143-.784-.19-1.181a1.308,1.308,0,0,1,.025-.583C327.747,168.45,328.03,168.4,328.32,168.69ZM333.2,161.6c.192,1.052.36,2.109.53,3.165a2.978,2.978,0,0,1,0,.415,2.2,2.2,0,0,1-1.525-1.561,2.829,2.829,0,0,1,.4-2.822A1.07,1.07,0,0,1,333.2,161.6Zm3.384-6.265c.3.33.6.662.917.97.165.158.185.136.551-.048a18,18,0,0,1-2.7-3.1,3.867,3.867,0,0,1,3.052,1.524,18.876,18.876,0,0,1,1.262,2.044,1.821,1.821,0,0,1,.17.507c.116.5-.043.687-.552.574a5.453,5.453,0,0,1-2.451-1.307,4.782,4.782,0,0,1-1.639-2.729C335.721,154.368,336.146,154.857,336.581,155.337Zm4.518-6.626c-.052.041-.1.085-.246.212l-1.21-1.116c-.076.029-.137.032-.153.062-.383.69-.888.81-1.448.22a2.844,2.844,0,0,1-.948-1.72,1.567,1.567,0,0,1,.625-1.63c.147-.092.255-.247.4-.344a1.845,1.845,0,0,1,2.4.04c.145.1.287.212.427.322a.861.861,0,0,1,.034,1.455c-.066.059-.151.1-.21.164-.154.167-.152.364.065.424a.784.784,0,0,1,.683.707A1.265,1.265,0,0,1,341.1,148.712Z" fill-rule="evenodd" fill="url(#linear-gradient-30)"/>
        <path id="Path_50" data-name="Path 50" d="M269.2,128.127a5.4,5.4,0,0,0-1.854,1.376c-.018.025-.035.049-.054.073a5.906,5.906,0,0,0,.882-.151l.034-.031a2.147,2.147,0,0,1,1.491-.558c.205-.107.409-.22.61-.345l-.006-.006A5.024,5.024,0,0,0,269.2,128.127Z" fill-rule="evenodd" fill="url(#linear-gradient-31)"/>
        <path id="Path_51" data-name="Path 51" d="M258.13,131.08a5.619,5.619,0,0,0,2.323,1.643,1.817,1.817,0,0,1,1.054.911c.112-.091.247-.192.378-.291-.048-.129-.088-.266-.143-.39a4.106,4.106,0,0,1-.424-1.659,1.759,1.759,0,0,0-.727-1.379,17.583,17.583,0,0,0-1.585-1.115,2.35,2.35,0,0,0-2.22-.065c.137.272.259.553.413.816A11.119,11.119,0,0,0,258.13,131.08Zm.614-1.876a17.775,17.775,0,0,1,1.472,1.04,1.277,1.277,0,0,1,.582,1.036c-.473-.414-.849-.751-1.236-1.074-.05-.04-.163-.005-.283-.005-.057.537.409.711.65,1.012a3.815,3.815,0,0,1,.719.972c-1.277-.271-3.073-1.979-2.912-3.119A1.164,1.164,0,0,1,258.744,129.2Z" fill-rule="evenodd" fill="url(#linear-gradient-32)"/>
        <path id="Path_52" data-name="Path 52" d="M279.345,172.189c-1.158,1.427-1.014,2.992-.481,4.642a1.057,1.057,0,0,1-.747-.32c-.761-.579-1.492-1.2-2.247-1.787a.627.627,0,0,1-.282-.742c.1-.343.153-.7.23-1.046a8.452,8.452,0,0,0-.064-3.718c-.064-.281-.127-.562-.189-.839a.943.943,0,0,0-1.311.545,5.694,5.694,0,0,0-.556,3.45c.026.153.059.307.081.461a.858.858,0,0,1-.034.193c-1.441-.958-2.356-2.386-3.567-3.581a6.637,6.637,0,0,1,.567-.706,7.962,7.962,0,0,0,2.265-5.22,2.156,2.156,0,0,0-.006-.267c-.027-.838-.52-1.639-.069-2.6-.508.156-.909.161-1.039.648a.521.521,0,0,1-.252.279,4.779,4.779,0,0,0-2.116,2.972,9.918,9.918,0,0,0-.577,3.48c0,.107-.02.213-.038.4a2.408,2.408,0,0,1-.359-.229,11.923,11.923,0,0,1-1.966-2.994c-.052-.1-.085-.206-.144-.3-.354-.56-.713-1.115-1.067-1.668a8,8,0,0,0,1.488-5.191,1.7,1.7,0,0,0-1.512.9,4.51,4.51,0,0,0-.57,1.843c-.013.232-.065.461-.1.692l-.147.02c-.253-.634-.546-1.256-.751-1.906q-.681-2.168-1.279-4.363a6.592,6.592,0,0,1-.108-1.219,1.11,1.11,0,0,1,1.031-.105,3.077,3.077,0,0,0,2.666-.76,2.246,2.246,0,0,0,.5-.613c.246-.4.446-.825.7-1.222a4.057,4.057,0,0,1,.55-.659c.3-.3.294-.644-.074-.705a4.96,4.96,0,0,0-2.953.044,2.023,2.023,0,0,0-.481.355,6.939,6.939,0,0,0-2.225,2.8,2.133,2.133,0,0,1-.344-.4,17.716,17.716,0,0,1-.667-3.663,12.483,12.483,0,0,0,2.505-2.567,4.231,4.231,0,0,0,.92-2.483c-.547-.265-1.01.008-1.47.188a3.36,3.36,0,0,0-1.6,1.716c-.194.35-.327.732-.488,1.1a.57.57,0,0,1-.281.309,5.194,5.194,0,0,1-.039-.766c.086-.977.172-1.956.3-2.928.142-1.06.327-2.116.506-3.172a3.183,3.183,0,0,1,.709-1.626c.233-.264.449-.543.667-.818a3.5,3.5,0,0,1-.6.073c-.01.012-.021.021-.03.032a.525.525,0,0,1-.16.11c-.012.006-.036-.012-.021-.006.013-.046.024-.093.037-.14a2.339,2.339,0,0,1-.568-.09,4.11,4.11,0,0,0-.118.417c-.217,1.069-.4,2.145-.6,3.22-.034.184-.076.364-.113.546-.044.012-.088.022-.132.033-.238-.629-1.027-.84-1.1-1.6-.006-.05-.09-.09-.136-.136-.149-.152-.3-.307-.444-.462a2.672,2.672,0,0,0-.356-.393,2.637,2.637,0,0,0-3.481.573,6.872,6.872,0,0,0-.814,2.408,2.249,2.249,0,0,0,.473.169c.645.063,1.289.106,1.933.161a2.14,2.14,0,0,0,1.705-.622l.953-.89a2.641,2.641,0,0,1,1.183,2.48c-.134,1.038-.2,2.087-.278,3.132a2.187,2.187,0,0,0,.049.6c.183.939.383,1.875.568,2.814.05.265.066.537.1.805a3.216,3.216,0,0,0-1.646-.94,8.161,8.161,0,0,0-1.019-.325,7.124,7.124,0,0,0-1.259-.081c-.141,0-.283.141-.466.241.394.51.728.951,1.072,1.385a5.1,5.1,0,0,0,2.51,1.7,7.362,7.362,0,0,0,1.044.229.573.573,0,0,1,.522.444c.093.39.2.778.253,1.173.125.854-.059,1.8.752,2.441.044.035.05.122.068.186.181.614.362,1.229.568,1.937l-1.863-1.323a.345.345,0,0,1-.028-.106c.031-1.779-1.049-2.863-2.385-3.771a.729.729,0,0,0-.983.058.64.64,0,0,1-.672.133.951.951,0,0,0-1.054.408,1.015,1.015,0,0,0,.053,1.194,7.4,7.4,0,0,0,.515.636c-.793.684-.489,1.449-.17,2.21.133.318.288.644.775.587-.037-.16-.064-.28-.092-.406a4.5,4.5,0,0,0,2.742.074,1.453,1.453,0,0,0,.475-.24c.5-.337.7-.361,1.188-.024a11.521,11.521,0,0,1,1.156.912,3.96,3.96,0,0,1,1.15,1.672,5.4,5.4,0,0,0,1.088,2.142c.058.058.041.189.053.256a12.93,12.93,0,0,0-1.8-.336c-.706-.037-1.418.061-2.129.089a3.173,3.173,0,0,0-1.615.582c-.469.308-.49.548-.019.823.6.349,1.208.671,1.833.96a3.033,3.033,0,0,0,3.123-.127,1.921,1.921,0,0,1,.355-.185c.369-.138.739-.265,1.14-.407.349.59.649,1.108.961,1.62a6.891,6.891,0,0,0,.519.769c.354.429.727.844,1.1,1.256a1.183,1.183,0,0,0,.444.378c1.1.322,1.623,1.24,2.348,2.135l-2.095-.162c-.331.114-.825.316-1.338.453a1.812,1.812,0,0,0-1.231.955,4.984,4.984,0,0,0-.246,3.455.362.362,0,0,0,.066.115,12.439,12.439,0,0,0,.931,1.224,1.8,1.8,0,0,0,1.116.717,1.217,1.217,0,0,0-.008-.42.861.861,0,0,1,.238-1.079,1.518,1.518,0,0,0,.37-.627,5.144,5.144,0,0,1,.88-1.643,2.008,2.008,0,0,0,.45-1.435c-.021-.349-.042-.7-.069-1.16l1.659.323c.83.845,2.029,1.33,2.453,2.6.474-.261.778-.019,1.095.256.355.3.74.572,1.108.864a4.032,4.032,0,0,1,.324.334,1.8,1.8,0,0,1-1.226-.066c-.672-.2-1.349-.363-1.856.353a.708.708,0,0,1-.218.151,2.24,2.24,0,0,0-.982,2.509,4.023,4.023,0,0,0,1.8,2.708,17.994,17.994,0,0,0,1.625.916c.185.1.381.159.509-.131a.769.769,0,0,0-.121-.21,1.622,1.622,0,0,1-.4-1.671c.059-.24.122-.475.191-.712a4.493,4.493,0,0,0,.108-3.076c-.01-.027.031-.076.045-.106l1.073-.2,2.342,1.355c.046-.164.1-.34.16-.529l-.143-.1C280.247,174.019,280.093,172.863,279.345,172.189Zm-16.01-20.219a13.1,13.1,0,0,0,1.179-1.18,1.712,1.712,0,0,1,1.565-.553c.376.031.748.1,1.176.16a3.486,3.486,0,0,1-.146.372c-.228.433-.457.866-.7,1.29A2.86,2.86,0,0,1,264,153.542c-.034-.051-.067-.1-.1-.155.4-.4.8-.806,1.214-1.2.213-.2.451-.317.7.055.087-.61-.122-.841-.511-.651a5.187,5.187,0,0,0-.914.655c-.4.32-.771.669-1.178.979a1.615,1.615,0,0,1-.531.136A2.3,2.3,0,0,1,263.334,151.97Zm-5.9-9.566a.683.683,0,0,1-.382.094c-.747-.054-1.492-.125-2.264-.194a3.735,3.735,0,0,1,.545-1.778,2.288,2.288,0,0,1,2.822-.556,2.944,2.944,0,0,1,.432.511c-.706.1-1.314-.253-1.9.021-.028.323.19.336.386.359.331.038.665.05.993.1a6.875,6.875,0,0,1,.7.19A3.2,3.2,0,0,1,257.436,142.4Zm3.7,5.411a6.539,6.539,0,0,1,1.176-2.512,2.108,2.108,0,0,1,1.573-.786.634.634,0,0,1-.026.783,9.334,9.334,0,0,1-.748,1.171c-.473.588-.985,1.141-1.494,1.7a3.589,3.589,0,0,1-.537.375A4.686,4.686,0,0,1,261.135,147.815Zm-3.735,2.538a5.362,5.362,0,0,1,2.458.674c.754.374.844,1.258,1.309,1.878C260.175,153.276,257.818,151.89,257.4,150.353Zm3.008,8.054c-.074.041-.193.1-.193.159-.007.5-.412.463-.712.5a3.215,3.215,0,0,1-2.3-.4.748.748,0,0,1-.388-.7.676.676,0,0,1,.482-.718c.182-.055.359-.13.682-.251-.243-.177-.374-.268-.5-.361a5.728,5.728,0,0,1-.735-.55.562.562,0,0,1-.08-.785.611.611,0,0,1,.778-.18,7.517,7.517,0,0,1,.681.345c.123-.219.235-.42.35-.621a4.1,4.1,0,0,1,2.369,2.4C261.081,157.868,261,158.08,260.409,158.407Zm4.727,4.009a7.476,7.476,0,0,1,.444-2.978,1.173,1.173,0,0,1,.74-.711C266.666,159.528,266.018,161.622,265.137,162.415Zm-.071,2.6a6.782,6.782,0,0,0-2.638-.175c-.212.036-.421.092-.7.155a.576.576,0,0,0,.69.33c.506-.041,1.018-.064,1.526-.062a3.223,3.223,0,0,1,.653.14c-1.19,1.282-3.329.524-4.5-.56a2.009,2.009,0,0,1,1.342-.606,5.2,5.2,0,0,1,4.053.705C265.389,165.125,265.22,165.047,265.065,165.014Zm4.382,2.21a8.92,8.92,0,0,1,1.377-4.278,2.567,2.567,0,0,1,1.349-1.022c.951,1.241.043,4.914-1.722,6.376a1.174,1.174,0,0,1,.113-.7c.285-.7.566-1.4.853-2.1a1.211,1.211,0,0,0,.083-1.006c-.445.431-.46.949-.67,1.369-.218.438-.386.9-.574,1.354a13.288,13.288,0,0,1-.62,1.343A2.874,2.874,0,0,1,269.447,167.224Zm.374,7.089A7.821,7.821,0,0,0,268.9,176a3,3,0,0,1-.454.639c-.151.188-.324.36-.532.587a2.435,2.435,0,0,1-1.014-2.085c.009-.375.107-.747.147-1.123.1-.966.412-1.583,1.816-1.766-.265.2-.415.295-.541.415a.962.962,0,0,0-.265,1.147,3.573,3.573,0,0,0,.834,1.343c-.084-.378-.128-.624-.2-.862-.061-.214-.166-.415-.221-.629a.629.629,0,0,1,.2-.731c.385-.251.8-.453,1.265-.712A2,2,0,0,1,269.821,174.313Zm5.21-.377c-1.166-.53-1.3-3.526-.184-4.987a.532.532,0,0,1,.533.49A7.45,7.45,0,0,1,275.031,173.936Zm1.019,6.286c-.127.606-.265,1.208-.408,1.854a1.556,1.556,0,0,1-1.043-.636,11.024,11.024,0,0,1-1.018-1.4,2.493,2.493,0,0,1-.117-2.01,1,1,0,0,1,.707-.726c.734,2.444.777,2.529,1.431,2.691a5.141,5.141,0,0,1-.771-3.05,1.094,1.094,0,0,1,1.5.967A6.089,6.089,0,0,1,276.05,180.221Zm3.619-3.36c-.375-.026-.4-.3-.472-.51a3.843,3.843,0,0,1,.187-3.362A9.027,9.027,0,0,1,279.669,176.861Z" fill-rule="evenodd" fill="url(#linear-gradient-33)"/>
        <path id="Path_53" data-name="Path 53" d="M262.788,123.194c.271.683.544,1.367.845,2.036a5.87,5.87,0,0,0,1.75,2.637c.027.019.021.081.037.149-.045.078-.1.176-.158.268-.248.4-.461.811-.675,1.225.176.01.366.023.577.04h.008c.5-.924,1.054-1.82,1.591-2.725a.614.614,0,0,1,.623-.3,9.471,9.471,0,0,0,4.924-1.257,4.94,4.94,0,0,0,.879-.608c.266-.221.2-.476-.127-.6a1.018,1.018,0,0,0-.327-.065,26.376,26.376,0,0,0-2.671-.029,4.278,4.278,0,0,0-1.357.513,4.026,4.026,0,0,1-.753.371c.158-.244.307-.5.48-.731a30.848,30.848,0,0,1,4.312-4.555c.859-.766.985-.734,1.838,0,.536.464,1.14.85,1.718,1.267.108.076.239.122.346.2a4.327,4.327,0,0,0,1.491.708l.1-.1a2.633,2.633,0,0,1-.451-.587,3.945,3.945,0,0,1-.741-.448c-.275-.216-.635-.324-.924-.527a7.947,7.947,0,0,1-1.368-1.188,7.068,7.068,0,0,1,1.211.011c.524.094,1.043.214,1.565.319a3.268,3.268,0,0,1,.2-.517c-.724-.127-1.449-.25-2.173-.378l-.37-.066a3.773,3.773,0,0,1,2.255-.529c.268.028.532.074.8.108.1-.141.2-.284.3-.426-.506-.083-1.01-.182-1.517-.253a3.056,3.056,0,0,0-.978.12,3.226,3.226,0,0,1-.81.136,10.55,10.55,0,0,1,.864-.766,16.348,16.348,0,0,1,2.169-1.433,9.241,9.241,0,0,0,1.654-1.014,3.7,3.7,0,0,1,.5-.293c.011-.05.036-.1.045-.148l.29-1.528c.009-.047.019-.1.028-.143a2.572,2.572,0,0,1-.424-.045,3.73,3.73,0,0,1-1.294,1.968,5.26,5.26,0,0,1-.094-2.616,2.449,2.449,0,0,1-.446-.574c-.064.268-.126.537-.176.808a7.619,7.619,0,0,0-.081,1.458,5.677,5.677,0,0,0,.15.856c.089.509.07.5-.4.776a17.3,17.3,0,0,0-1.8,1.152,55.55,55.55,0,0,0-4.769,4.181,4.283,4.283,0,0,1-.44.31c0-.8.042-1.483-.01-2.165a9.834,9.834,0,0,0-.856-3.629c-.44-.9-.939-1.775-1.466-2.628a1.178,1.178,0,0,1-.286-.989c-.481-.008-.649.115-.771.469a6.232,6.232,0,0,1-.4.983,4.871,4.871,0,0,0-.622,3.159c.139.88.362,1.746.534,2.623a2.69,2.69,0,0,0,1.051,1.574c.484.4.975.779,1.468,1.164.12.094.251.171.41.275a36.865,36.865,0,0,0-3.8,5.245,6.294,6.294,0,0,0-1.069-3.354c-.724-1.142-2.1-1.915-2.835-1.739.1.435.176.815.262,1.194A4.307,4.307,0,0,0,262.788,123.194Zm5.517-8.151a5.938,5.938,0,0,0,.3.885,18.559,18.559,0,0,1,1.218,3.675,3.456,3.456,0,0,1,.045.578l-.149.062a4.313,4.313,0,0,1-2.171-2.545,8.384,8.384,0,0,1-.3-3.957,3.681,3.681,0,0,1,.864-1.718,11.389,11.389,0,0,1,2.337,7.833c-.124-.469-.222-.948-.378-1.407-.408-1.2-.836-2.4-1.274-3.589-.04-.112-.223-.26-.319-.247C268.244,114.647,268.257,114.868,268.305,115.043Zm4.067,9.485a4.655,4.655,0,0,1-2.9,1.2c.6-.3,1.273-.43,1.912-.767a.55.55,0,0,0-.672-.195q-.957.289-1.905.6c-.248.082-.488.156-.54.5-.041.272-.253.123-.48.084A4.3,4.3,0,0,1,272.372,124.528Zm-6.867,1.881c-.136-.536-.254-1.075-.418-1.6a5.239,5.239,0,0,0-.417-.977.352.352,0,0,0-.592-.135,12.475,12.475,0,0,1,.588,1.329,5.489,5.489,0,0,1,.209,1.442,15.556,15.556,0,0,1-1.8-4.336C264.516,122.311,266.022,124.917,265.505,126.408Z" fill-rule="evenodd" fill="url(#linear-gradient-34)"/>
      </g>
    </g>
    <g id="Group_17" data-name="Group 17">
      <g id="Group_15" data-name="Group 15">
        <g id="Group_14" data-name="Group 14">
          <path id="Path_54" data-name="Path 54" d="M360.278,171.059a4.294,4.294,0,0,1-7.464-2.889,4.06,4.06,0,0,1,4.2-4.285,3.956,3.956,0,0,1,3.136,1.325l-.513.537a3.473,3.473,0,0,0-2.648-1.061,3.19,3.19,0,0,0-3.3,3.484,3.287,3.287,0,0,0,3.481,3.485,3.361,3.361,0,0,0,2.634-1.145Z" fill="url(#linear-gradient-35)"/>
          <path id="Path_55" data-name="Path 55" d="M364.146,163.993h6.807v.787h-2.981v7.568h-.846V164.78h-2.979Z" fill="url(#linear-gradient-36)"/>
          <path id="Path_56" data-name="Path 56" d="M377.24,171.465a.773.773,0,0,0,.3.072c.406,0,.739-.465,1.109-1.218l-4.089-6.327h.991l3.54,5.49,2.647-5.49h.858l-3.161,6.469c-.572,1.207-1.107,1.887-1.942,1.887a1.043,1.043,0,0,1-.608-.191Z" fill="url(#linear-gradient-37)"/>
          <path id="Path_57" data-name="Path 57" d="M386.164,171.574h.882c.525-.788,1.228-2.447,1.228-6.029v-1.552h5.448v7.581h1.086v2.339h-.8v-1.564h-7.046v1.564h-.8Zm2.909-5.873c0,2.017-.359,4.691-1.122,5.873h4.925v-6.8h-3.8Z" fill="url(#linear-gradient-38)"/>
          <path id="Path_58" data-name="Path 58" d="M399.412,172.349v-8.356h.847v6.924l5.378-6.924h.739v8.356h-.847v-6.924l-5.39,6.924Z" fill="url(#linear-gradient-39)"/>
          <path id="Path_59" data-name="Path 59" d="M417.158,169.149h-2.493l-2.67,3.2h-1.037l2.788-3.319a2.449,2.449,0,0,1-2.24-2.47c0-1.409,1.014-2.567,3.231-2.567H418v8.356h-.845Zm0-.787v-3.593H414.63c-1.611,0-2.23.811-2.23,1.826,0,.931.7,1.647,1.99,1.766Z" fill="url(#linear-gradient-40)"/>
        </g>
        <path id="Path_60" data-name="Path 60" d="M429.64,171.574h.883c.525-.788,1.228-2.447,1.228-6.029v-1.552H437.2v7.581h1.086v2.339h-.8v-1.564h-7.045v1.564h-.8Zm2.91-5.873c0,2.017-.36,4.691-1.122,5.873h4.925v-6.8h-3.8Z" fill="url(#linear-gradient-41)"/>
        <path id="Path_61" data-name="Path 61" d="M442.889,163.993h5.95v.787h-5.1v2.926H448.5v.787h-4.768v3.068h5.221v.787h-6.068Z" fill="url(#linear-gradient-42)"/>
        <path id="Path_62" data-name="Path 62" d="M460.206,164.78h-5.294v7.568h-.845v-8.356h6.986v8.356h-.847Z" fill="url(#linear-gradient-43)"/>
        <path id="Path_63" data-name="Path 63" d="M466.469,172.349v-8.356h.846v6.924l5.378-6.924h.739v8.356h-.846v-6.924l-5.39,6.924Z" fill="url(#linear-gradient-44)"/>
        <path id="Path_64" data-name="Path 64" d="M484.535,164.769h-3.922v1.468c0,4.655-1.192,6.159-2.265,6.147a1.463,1.463,0,0,1-.43-.036v-.811c.81,0,1.847-.465,1.847-5.826v-1.718h5.615v8.356h-.845Z" fill="url(#linear-gradient-45)"/>
        <path id="Path_65" data-name="Path 65" d="M496.176,169.149h-2.493l-2.67,3.2h-1.037l2.788-3.319a2.449,2.449,0,0,1-2.24-2.47c0-1.409,1.014-2.567,3.231-2.567h3.267v8.356h-.845Zm0-.787v-3.593h-2.527c-1.611,0-2.23.811-2.23,1.826,0,.931.7,1.647,1.99,1.766Z" fill="url(#linear-gradient-46)"/>
        <path id="Path_66" data-name="Path 66" d="M502.428,163.993h.845v7.568h5.044v-7.568h.845v7.568h1.086v2.351h-.8v-1.564h-7.022Z" fill="url(#linear-gradient-47)"/>
        <path id="Path_67" data-name="Path 67" d="M514.854,172.349v-8.356h.846v6.924l5.378-6.924h.739v8.356h-.846v-6.924l-5.391,6.924Z" fill="url(#linear-gradient-48)"/>
        <path id="Path_68" data-name="Path 68" d="M527.224,172.349v-8.356h.846v6.924l5.378-6.924h.739v8.356h-.845v-6.924l-5.391,6.924Z" fill="url(#linear-gradient-49)"/>
      </g>
      <g id="Group_16" data-name="Group 16">
        <path id="Path_69" data-name="Path 69" d="M352.814,153.052V125.027h11.317c9.437,0,11.636,4.764,11.636,9.208,0,4.6-2.958,9.207-11.676,9.207h-6.438v9.609Zm4.839-23.5v9.369h6.358c4.718,0,6.718-1.841,6.718-4.724,0-2.683-1.68-4.645-6.438-4.645Z" fill="#3d3d3d"/>
        <path id="Path_70" data-name="Path 70" d="M387.921,125.027h4.839v28.024h-4.839Z" fill="#3d3d3d"/>
        <path id="Path_71" data-name="Path 71" d="M426.507,153.052l-15.435-19.1v19.1h-4.718V125.027h3.759L425.548,144.2V125.027h4.718v28.024Z" fill="#3d3d3d"/>
        <path id="Path_72" data-name="Path 72" d="M468.132,148.167c-2.32,3.284-6.6,5.205-11.356,5.205-8.8,0-14.4-5.646-14.4-14.333,0-8.008,5.637-14.334,14.315-14.334,5.078,0,9.076,2.042,11,4.844l-3.2,3.043a9.872,9.872,0,0,0-7.557-3.243c-5.758,0-9.517,3.843-9.517,9.689s4,9.688,9.716,9.688a10.252,10.252,0,0,0,8.158-3.683Z" fill="#3d3d3d"/>
        <path id="Path_73" data-name="Path 73" d="M479.525,125.027h20.794v4.564H484.364v7.046h14.915v4.4H484.364v7.447h16.355v4.564H479.525Z" fill="#3d3d3d"/>
        <path id="Path_74" data-name="Path 74" d="M510.553,125.027h23.633v4.564h-9.4v23.461h-4.838V129.591h-9.4Z" fill="#3d3d3d"/>
      </g>
    </g>
  </g>
</svg>
